<?xml version="1.0" encoding="utf-8" ?>
<svg baseProfile="full" height="804" version="1.1" width="1795" xmlns="http://www.w3.org/2000/svg" xmlns:ev="http://www.w3.org/2001/xml-events" xmlns:xlink="http://www.w3.org/1999/xlink"><defs /><path d="M 1321.0,656.996862745098 L 1320.0,656.996862745098 L 1319.0,656.996862745098 L 1318.0,656.996862745098 L 1317.0,656.996862745098 L 1316.0,656.996862745098 L 1315.0,656.996862745098 L 1314.0,656.996862745098 L 1313.0,656.996862745098 L 1312.0,656.996862745098 L 1311.0,656.996862745098 L 1310.0,656.996862745098 L 1309.0,656.996862745098 L 1308.0,656.996862745098 L 1307.0,656.996862745098 L 1306.0,656.996862745098 L 1305.0,656.996862745098 L 1304.0,656.996862745098 L 1303.0,656.996862745098 L 1302.0,656.996862745098 L 1301.0,656.996862745098 L 1300.0,656.996862745098 L 1299.0,656.996862745098 L 1298.0,656.996862745098 L 1297.0,656.996862745098 L 1296.0,656.996862745098 L 1295.0,656.996862745098 L 1294.0,656.996862745098 L 1293.0,656.996862745098 L 1292.0,656.996862745098 L 1291.0,656.996862745098 L 1290.0,656.996862745098 L 1289.0,656.996862745098 L 1288.0,656.996862745098 L 1287.0,656.996862745098 L 1286.0,656.996862745098 L 1285.0,656.996862745098 L 1284.0,656.996862745098 L 1283.0,656.996862745098 L 1282.0,656.996862745098 L 1281.0,656.996862745098 L 1280.0,656.996862745098 L 1279.0,656.996862745098 L 1278.0,656.996862745098 L 1277.0,656.996862745098 L 1276.0,656.996862745098 L 1275.0,656.996862745098 L 1274.0,656.996862745098 L 1273.0,656.996862745098 L 1272.0,656.996862745098 L 1271.0,656.996862745098 L 1270.0,656.996862745098 L 1269.0,656.996862745098 L 1268.0,656.996862745098 L 1267.0,656.996862745098 L 1266.0,656.996862745098 L 1265.0,656.996862745098 L 1264.0,656.996862745098 L 1263.0,656.996862745098 L 1262.0,656.996862745098 L 1261.0,656.996862745098 L 1260.0,656.996862745098 L 1259.0,656.996862745098 L 1258.0,656.996862745098 L 1257.0,656.996862745098 L 1256.0,656.996862745098 L 1255.0,656.996862745098 L 1254.0,656.996862745098 L 1253.0,656.996862745098 L 1252.0,656.996862745098 L 1251.0,656.996862745098 L 1250.0,656.996862745098 L 1249.0,656.996862745098 L 1248.0,656.996862745098 L 1247.0,656.996862745098 L 1246.0,656.996862745098 L 1245.0,656.996862745098 L 1244.0,656.996862745098 L 1243.0,656.996862745098 L 1242.0,656.996862745098 L 1241.0,656.996862745098 L 1240.0,656.996862745098 L 1239.0,656.996862745098 L 1238.0,656.996862745098 L 1237.0,656.996862745098 L 1236.0,656.996862745098 L 1235.0,656.996862745098 L 1234.0,656.996862745098 L 1233.0,656.996862745098 L 1232.0,656.996862745098 L 1231.0,656.996862745098 L 1230.0,656.996862745098 L 1229.0,656.996862745098 L 1228.0,656.996862745098 L 1227.0,656.996862745098 L 1226.0,656.996862745098 L 1225.0,656.996862745098 L 1224.0,656.996862745098 L 1223.0,656.996862745098 L 1222.0,656.996862745098 L 1221.0,656.996862745098 L 1220.0,656.996862745098 L 1219.0,656.996862745098 L 1218.0,656.996862745098 L 1217.0,656.996862745098 L 1216.0,656.996862745098 L 1215.0,656.996862745098 L 1214.0,656.996862745098 L 1213.0,656.996862745098 L 1212.0,656.996862745098 L 1211.0,656.996862745098 L 1210.0,656.996862745098 L 1209.0,656.996862745098 L 1208.0,656.996862745098 L 1207.0,656.996862745098 L 1206.0,656.996862745098 L 1205.0,656.996862745098 L 1204.0,656.996862745098 L 1203.0,656.996862745098 L 1202.0,656.996862745098 L 1201.0,656.996862745098 L 1200.0,656.996862745098 L 1199.0,656.996862745098 L 1198.0,656.996862745098 L 1197.0,656.996862745098 L 1196.0,656.996862745098 L 1195.0,656.996862745098 L 1194.0,656.996862745098 L 1193.0,656.996862745098 L 1192.0,656.996862745098 L 1191.0,656.996862745098 L 1190.0,656.996862745098 L 1189.0,656.996862745098 L 1188.0,656.996862745098 L 1187.0,656.996862745098 L 1186.0,656.996862745098 L 1185.0,656.996862745098 L 1184.0,656.996862745098 L 1183.0,656.996862745098 L 1182.0,656.996862745098 L 1181.0,656.996862745098 L 1180.0,656.996862745098 L 1179.0,656.996862745098 L 1178.0,656.996862745098 L 1177.0,656.996862745098 L 1176.0,656.996862745098 L 1175.0,656.996862745098 L 1174.0,656.996862745098 L 1173.0,656.996862745098 L 1172.0,656.996862745098 L 1171.0,656.996862745098 L 1170.0,656.996862745098 L 1169.0,656.996862745098 L 1168.0,656.996862745098 L 1167.0,656.996862745098 L 1166.0,656.996862745098 L 1165.0,656.996862745098 L 1164.0,656.996862745098 L 1163.0,656.996862745098 L 1162.0,656.996862745098 L 1161.0,656.996862745098 L 1160.0,656.996862745098 L 1159.0,656.996862745098 L 1158.0,656.996862745098 L 1157.0,656.996862745098 L 1156.0,656.996862745098 L 1155.0,656.996862745098 L 1154.0,656.996862745098 L 1153.0,656.996862745098 L 1152.0,656.996862745098 L 1151.0,656.996862745098 L 1150.0,656.996862745098 L 1149.0,656.996862745098 L 1148.0,656.996862745098 L 1147.0,656.996862745098 L 1146.0,656.996862745098 L 1145.0,656.996862745098 L 1144.0,656.996862745098 L 1143.0,656.996862745098 L 1142.0,656.996862745098 L 1141.0,656.996862745098 L 1140.0,656.996862745098 L 1139.0,656.996862745098 L 1138.0,656.996862745098 L 1137.0,656.996862745098 L 1136.0,656.996862745098 L 1135.0,656.996862745098 L 1134.0,656.996862745098 L 1133.0,656.996862745098 L 1132.0,656.996862745098 L 1131.0,656.996862745098 L 1130.0,656.996862745098 L 1129.0,656.996862745098 L 1128.0,656.996862745098 L 1127.0,656.996862745098 L 1126.0,656.996862745098 L 1125.0,656.996862745098 L 1124.0,656.996862745098 L 1123.0,656.996862745098 L 1122.0,656.996862745098 L 1121.0,656.996862745098 L 1120.0,656.996862745098 L 1119.0,656.996862745098 L 1118.0,656.996862745098 L 1117.0,656.996862745098 L 1116.0,656.996862745098 L 1115.0,656.996862745098 L 1114.0,656.996862745098 L 1113.0,656.996862745098 L 1112.0,656.996862745098 L 1111.0,656.996862745098 L 1110.0,656.996862745098 L 1109.0,656.996862745098 L 1108.0,656.996862745098 L 1107.0,656.996862745098 L 1106.0,656.996862745098 L 1105.0,656.996862745098 L 1104.0,656.996862745098 L 1103.0,656.996862745098 L 1102.0,656.996862745098 L 1101.0,656.996862745098 L 1100.0,656.996862745098 L 1099.0,656.996862745098 L 1098.0,656.996862745098 L 1097.0,656.996862745098 L 1096.0,656.996862745098 L 1095.0,656.996862745098 L 1094.0,656.996862745098 L 1093.0,656.996862745098 L 1092.0,656.996862745098 L 1091.0,656.996862745098 L 1090.0,656.996862745098 L 1089.0,656.996862745098 L 1088.0,656.996862745098 L 1087.0,656.996862745098 L 1086.0,656.996862745098 L 1085.0,656.996862745098 L 1084.0,656.996862745098 L 1083.0,656.996862745098 L 1082.0,656.996862745098 L 1081.0,656.996862745098 L 1080.0,656.996862745098 L 1079.0,656.996862745098 L 1078.0,656.996862745098 L 1077.0,656.996862745098 L 1076.0,656.996862745098 L 1075.0,656.996862745098 L 1074.0,656.996862745098 L 1073.0,656.996862745098 L 1072.0,656.996862745098 L 1071.0,656.996862745098 L 1070.0,656.996862745098 L 1069.0,656.996862745098 L 1068.0,656.996862745098 L 1067.0,656.996862745098 L 1066.0,656.996862745098 L 1065.0,656.996862745098 L 1064.0,656.996862745098 L 1063.0,656.996862745098 L 1062.0,656.996862745098 L 1061.0,656.996862745098 L 1060.0,656.996862745098 L 1059.0,656.996862745098 L 1058.0,656.996862745098 L 1057.0,656.996862745098 L 1056.0,656.996862745098 L 1055.0,656.996862745098 L 1054.0,656.996862745098 L 1053.0,656.996862745098 L 1052.0,656.996862745098 L 1051.0,656.996862745098 L 1050.0,656.996862745098 L 1049.0,656.996862745098 L 1048.0,656.996862745098 L 1047.0,656.996862745098 L 1046.0,656.996862745098 L 1045.0,656.996862745098 L 1044.0,656.996862745098 L 1043.0,656.996862745098 L 1042.0,656.996862745098 L 1041.0,656.996862745098 L 1040.0,656.996862745098 L 1039.0,656.996862745098 L 1038.0,656.996862745098 L 1037.0,656.996862745098 L 1036.0,656.996862745098 L 1035.0,656.996862745098 L 1034.0,656.996862745098 L 1033.0,656.996862745098 L 1032.0,656.996862745098 L 1031.0,656.996862745098 L 1030.0,656.996862745098 L 1029.0,656.996862745098 L 1028.0,656.996862745098 L 1027.0,656.996862745098 L 1026.0,656.996862745098 L 1025.0,656.996862745098 L 1024.0,656.996862745098 L 1023.0,656.996862745098 L 1022.0,656.996862745098 L 1021.0,656.996862745098 L 1020.0,656.996862745098 L 1019.0,656.996862745098 L 1018.0,656.996862745098 L 1017.0,656.996862745098 L 1016.0,656.996862745098 L 1015.0,656.996862745098 L 1014.0,656.996862745098 L 1013.0,656.996862745098 L 1012.0,656.996862745098 L 1011.0,656.996862745098 L 1010.0,656.996862745098 L 1009.0,656.996862745098 L 1008.0,656.996862745098 L 1007.0,656.996862745098 L 1006.0,656.996862745098 L 1005.0,656.996862745098 L 1004.0,656.996862745098 L 1003.0,656.996862745098 L 1002.0,656.996862745098 L 1001.0,656.996862745098 L 1000.0,656.996862745098 L 999.0,656.996862745098 L 998.0,656.996862745098 L 997.0,656.996862745098 L 996.0,656.996862745098 L 995.0,656.996862745098 L 994.0,656.996862745098 L 993.0,656.996862745098 L 992.0,656.996862745098 L 991.0,656.996862745098 L 990.0,656.996862745098 L 989.0,656.996862745098 L 988.0,656.996862745098 L 987.0,656.996862745098 L 986.0,656.996862745098 L 985.0,656.996862745098 L 984.0,656.996862745098 L 983.0,656.996862745098 L 982.0,656.996862745098 L 981.0,656.996862745098 L 980.0,656.996862745098 L 979.0,656.996862745098 L 978.0,656.996862745098 L 977.0,656.996862745098 L 976.0,656.996862745098 L 975.0,656.996862745098 L 974.0,656.996862745098 L 973.0,656.996862745098 L 972.0,656.996862745098 L 971.0,656.996862745098 L 970.0,656.996862745098 L 969.0,656.996862745098 L 968.003137254902,656.0 L 968.0,655.996862745098 L 967.0,655.996862745098 L 966.0,655.996862745098 L 965.0,655.996862745098 L 964.0,655.996862745098 L 963.0,655.996862745098 L 962.0,655.996862745098 L 961.0,655.996862745098 L 960.0,655.996862745098 L 959.0,655.996862745098 L 958.0,655.996862745098 L 957.0,655.996862745098 L 956.0,655.996862745098 L 955.0,655.996862745098 L 954.0,655.996862745098 L 953.0,655.996862745098 L 952.0,655.996862745098 L 951.0,655.996862745098 L 950.0,655.996862745098 L 949.0,655.996862745098 L 948.0,655.996862745098 L 947.0,655.996862745098 L 946.0,655.996862745098 L 945.0,655.996862745098 L 944.0,655.996862745098 L 943.0,655.996862745098 L 942.0,655.996862745098 L 941.0,655.996862745098 L 940.0,655.996862745098 L 939.0,655.996862745098 L 938.0,655.996862745098 L 937.0,655.996862745098 L 936.0,655.996862745098 L 935.0,655.996862745098 L 934.0,655.996862745098 L 933.0,655.996862745098 L 932.0,655.996862745098 L 931.0,655.996862745098 L 930.0,655.996862745098 L 929.0,655.996862745098 L 928.0,655.996862745098 L 927.0,655.996862745098 L 926.0,655.996862745098 L 925.0,655.996862745098 L 924.0,655.996862745098 L 923.0,655.996862745098 L 922.0,655.996862745098 L 921.0,655.996862745098 L 920.0,655.996862745098 L 919.0,655.996862745098 L 918.0,655.996862745098 L 917.0,655.996862745098 L 916.0,655.996862745098 L 915.0,655.996862745098 L 914.0,655.996862745098 L 913.0,655.996862745098 L 912.0,655.996862745098 L 911.0,655.996862745098 L 910.0,655.996862745098 L 909.0,655.996862745098 L 908.0,655.996862745098 L 907.0,655.996862745098 L 906.0,655.996862745098 L 905.0,655.996862745098 L 904.0,655.996862745098 L 903.0,655.996862745098 L 902.0,655.996862745098 L 901.0,655.996862745098 L 900.0,655.996862745098 L 899.0,655.996862745098 L 898.0,655.996862745098 L 897.0,655.996862745098 L 896.0,655.996862745098 L 895.0,655.996862745098 L 894.0,655.996862745098 L 893.0,655.996862745098 L 892.0,655.996862745098 L 891.0,655.996862745098 L 890.0,655.996862745098 L 889.0,655.996862745098 L 888.0,655.996862745098 L 887.0,655.996862745098 L 886.0,655.996862745098 L 885.0,655.996862745098 L 884.0,655.996862745098 L 883.0,655.996862745098 L 882.0,655.996862745098 L 881.0,655.996862745098 L 880.0,655.996862745098 L 879.0,655.996862745098 L 878.0,655.996862745098 L 877.0,655.996862745098 L 876.0,655.996862745098 L 875.0,655.996862745098 L 874.0,655.996862745098 L 873.0,655.996862745098 L 872.0,655.996862745098 L 871.0,655.996862745098 L 870.0,655.996862745098 L 869.0,655.996862745098 L 868.0,655.996862745098 L 867.0,655.996862745098 L 866.0,655.996862745098 L 865.0,655.996862745098 L 864.0,655.996862745098 L 863.0,655.996862745098 L 862.0,655.996862745098 L 861.0,655.996862745098 L 860.0,655.996862745098 L 859.0,655.996862745098 L 858.0,655.996862745098 L 857.0,655.996862745098 L 856.0,655.996862745098 L 855.0,655.996862745098 L 854.0,655.996862745098 L 853.0,655.996862745098 L 852.0,655.996862745098 L 851.0,655.996862745098 L 850.0,655.996862745098 L 849.0,655.996862745098 L 848.0,655.996862745098 L 847.0,655.996862745098 L 846.0,655.996862745098 L 845.0,655.996862745098 L 844.0,655.996862745098 L 843.0,655.996862745098 L 842.0,655.996862745098 L 841.0,655.996862745098 L 840.0,655.996862745098 L 839.0,655.996862745098 L 838.0,655.996862745098 L 837.0,655.996862745098 L 836.0,655.996862745098 L 835.0,655.996862745098 L 834.0,655.996862745098 L 833.0,655.996862745098 L 832.0,655.996862745098 L 831.0,655.996862745098 L 830.0,655.996862745098 L 829.0,655.996862745098 L 828.0,655.996862745098 L 827.0,655.996862745098 L 826.0,655.996862745098 L 825.0,655.996862745098 L 824.0,655.996862745098 L 823.0,655.996862745098 L 822.0,655.996862745098 L 821.0,655.996862745098 L 820.0,655.996862745098 L 819.0,655.996862745098 L 818.0,655.996862745098 L 817.0,655.996862745098 L 816.0,655.996862745098 L 815.0,655.996862745098 L 814.0,655.996862745098 L 813.0,655.996862745098 L 812.0,655.996862745098 L 811.0,655.996862745098 L 810.0,655.996862745098 L 809.0,655.996862745098 L 808.0,655.996862745098 L 807.0,655.996862745098 L 806.0,655.996862745098 L 805.0,655.996862745098 L 804.0,655.996862745098 L 803.0,655.996862745098 L 802.0,655.996862745098 L 801.0,655.996862745098 L 800.0,655.996862745098 L 799.0,655.996862745098 L 798.0,655.996862745098 L 797.0,655.996862745098 L 796.0,655.996862745098 L 795.0,655.996862745098 L 794.0,655.996862745098 L 793.0,655.996862745098 L 792.0,655.996862745098 L 791.0,655.996862745098 L 790.0,655.996862745098 L 789.0,655.996862745098 L 788.0,655.996862745098 L 787.0,655.996862745098 L 786.0,655.996862745098 L 785.0,655.996862745098 L 784.0,655.996862745098 L 783.0,655.996862745098 L 782.0,655.996862745098 L 781.0,655.996862745098 L 780.0,655.996862745098 L 779.0,655.996862745098 L 778.0,655.996862745098 L 777.0,655.996862745098 L 776.0,655.996862745098 L 775.0,655.996862745098 L 774.0,655.996862745098 L 773.0,655.996862745098 L 772.0,655.996862745098 L 771.0,655.996862745098 L 770.0,655.996862745098 L 769.0,655.996862745098 L 768.0,655.996862745098 L 767.0,655.996862745098 L 766.0,655.996862745098 L 765.0,655.996862745098 L 764.0,655.996862745098 L 763.0,655.996862745098 L 762.0,655.996862745098 L 761.0,655.996862745098 L 760.0,655.996862745098 L 759.0,655.996862745098 L 758.0,655.996862745098 L 757.0,655.996862745098 L 756.0,655.996862745098 L 755.0,655.996862745098 L 754.0,655.996862745098 L 753.0,655.996862745098 L 752.0,655.996862745098 L 751.0,655.996862745098 L 750.0,655.996862745098 L 749.0,655.996862745098 L 748.0,655.996862745098 L 747.0,655.996862745098 L 746.0,655.996862745098 L 745.0,655.996862745098 L 744.0,655.996862745098 L 743.0,655.996862745098 L 742.0,655.996862745098 L 741.0,655.996862745098 L 740.0,655.996862745098 L 739.0,655.996862745098 L 738.0,655.996862745098 L 737.0,655.996862745098 L 736.0,655.996862745098 L 735.0,655.996862745098 L 734.0,655.996862745098 L 733.0,655.996862745098 L 732.0,655.996862745098 L 731.0,655.996862745098 L 730.0,655.996862745098 L 729.0,655.996862745098 L 728.0,655.996862745098 L 727.0,655.996862745098 L 726.0,655.996862745098 L 725.0,655.996862745098 L 724.0,655.996862745098 L 723.0,655.996862745098 L 722.0,655.996862745098 L 721.0,655.996862745098 L 720.0,655.996862745098 L 719.0,655.996862745098 L 718.0,655.996862745098 L 717.0,655.996862745098 L 716.0,655.996862745098 L 715.0,655.996862745098 L 714.0,655.996862745098 L 713.0,655.996862745098 L 712.0,655.996862745098 L 711.0,655.996862745098 L 710.0,655.996862745098 L 709.0,655.996862745098 L 708.0,655.996862745098 L 707.0,655.996862745098 L 706.0,655.996862745098 L 705.0,655.996862745098 L 704.0,655.996862745098 L 703.0,655.996862745098 L 702.0,655.996862745098 L 701.0,655.996862745098 L 700.0,655.996862745098 L 699.0,655.996862745098 L 698.0,655.996862745098 L 697.0,655.996862745098 L 696.0,655.996862745098 L 695.0,655.996862745098 L 694.0,655.996862745098 L 693.0,655.996862745098 L 692.0,655.996862745098 L 691.0,655.996862745098 L 690.0,655.996862745098 L 689.0,655.996862745098 L 688.0,655.996862745098 L 687.0,655.996862745098 L 686.0,655.996862745098 L 685.0,655.996862745098 L 684.0,655.996862745098 L 683.0,655.996862745098 L 682.0,655.996862745098 L 681.0,655.996862745098 L 680.0,655.996862745098 L 679.0,655.996862745098 L 678.0,655.996862745098 L 677.0,655.996862745098 L 676.0,655.996862745098 L 675.0,655.996862745098 L 674.0,655.996862745098 L 673.0,655.996862745098 L 672.0,655.996862745098 L 671.0,655.996862745098 L 670.0,655.996862745098 L 669.0,655.996862745098 L 668.0,655.996862745098 L 667.0,655.996862745098 L 666.0,655.996862745098 L 665.0,655.996862745098 L 664.0,655.996862745098 L 663.0,655.996862745098 L 662.0,655.996862745098 L 661.0,655.996862745098 L 660.0,655.996862745098 L 659.0,655.996862745098 L 658.0,655.996862745098 L 657.0,655.996862745098 L 656.0,655.996862745098 L 655.0,655.996862745098 L 654.0,655.996862745098 L 653.0,655.996862745098 L 652.0,655.996862745098 L 651.0,655.996862745098 L 650.0,655.996862745098 L 649.0,655.996862745098 L 648.0,655.996862745098 L 647.0,655.996862745098 L 646.0,655.996862745098 L 645.0,655.996862745098 L 644.0,655.996862745098 L 643.0,655.996862745098 L 642.0,655.996862745098 L 641.0,655.996862745098 L 640.0,655.996862745098 L 639.0,655.996862745098 L 638.0,655.996862745098 L 637.0,655.996862745098 L 636.0,655.996862745098 L 635.0,655.996862745098 L 634.0,655.996862745098 L 633.0,655.996862745098 L 632.0,655.996862745098 L 631.0,655.996862745098 L 630.0,655.996862745098 L 629.0,655.996862745098 L 628.0,655.996862745098 L 627.0,655.996862745098 L 626.0,655.996862745098 L 625.0,655.996862745098 L 624.0,655.996862745098 L 623.0,655.996862745098 L 622.0,655.996862745098 L 621.0,655.996862745098 L 620.0,655.996862745098 L 619.0,655.996862745098 L 618.003137254902,655.0 L 618.003137254902,654.0 L 618.003137254902,653.0 L 618.0,652.996862745098 L 617.0,652.996862745098 L 616.0,652.996862745098 L 615.0,652.996862745098 L 614.0,652.996862745098 L 613.0,652.996862745098 L 612.0,652.996862745098 L 611.0,652.996862745098 L 610.0,652.996862745098 L 609.0,652.996862745098 L 608.0,652.996862745098 L 607.0,652.996862745098 L 606.0,652.996862745098 L 605.0,652.996862745098 L 604.0,652.996862745098 L 603.0,652.996862745098 L 602.0,652.996862745098 L 601.0,652.996862745098 L 600.0,652.996862745098 L 599.0,652.996862745098 L 598.0,652.996862745098 L 597.0,652.996862745098 L 596.0,652.996862745098 L 595.0,652.996862745098 L 594.0,652.996862745098 L 593.0,652.996862745098 L 592.0,652.996862745098 L 591.0,652.996862745098 L 590.0,652.996862745098 L 589.0,652.996862745098 L 588.0,652.996862745098 L 587.0,652.996862745098 L 586.0,652.996862745098 L 585.0,652.996862745098 L 584.0,652.996862745098 L 583.0,652.996862745098 L 582.0,652.996862745098 L 581.0,652.996862745098 L 580.0,652.996862745098 L 579.0,652.996862745098 L 578.0,652.996862745098 L 577.0,652.996862745098 L 576.0,652.996862745098 L 575.0,652.996862745098 L 574.0,652.996862745098 L 573.0,652.996862745098 L 572.0,652.996862745098 L 571.0,652.996862745098 L 570.0,652.996862745098 L 569.0,652.996862745098 L 568.0,652.996862745098 L 567.0,652.996862745098 L 566.0,652.996862745098 L 565.0,652.996862745098 L 564.0,652.996862745098 L 563.0,652.996862745098 L 562.0,652.996862745098 L 561.0,652.996862745098 L 560.0,652.996862745098 L 559.0,652.996862745098 L 558.0,652.996862745098 L 557.0,652.996862745098 L 556.0,652.996862745098 L 555.0,652.996862745098 L 554.0,652.996862745098 L 553.0,652.996862745098 L 552.0,652.996862745098 L 551.0,652.996862745098 L 550.0,652.996862745098 L 549.0,652.996862745098 L 548.0,652.996862745098 L 547.0,652.996862745098 L 546.0,652.996862745098 L 545.0,652.996862745098 L 544.0,652.996862745098 L 543.0,652.996862745098 L 542.0,652.996862745098 L 541.0,652.996862745098 L 540.0,652.996862745098 L 539.0,652.996862745098 L 538.0,652.996862745098 L 537.0,652.996862745098 L 536.0,652.996862745098 L 535.0,652.996862745098 L 534.0,652.996862745098 L 533.0,652.996862745098 L 532.0,652.996862745098 L 531.0,652.996862745098 L 530.0,652.996862745098 L 529.0,652.996862745098 L 528.0,652.996862745098 L 527.0,652.996862745098 L 526.0,652.996862745098 L 525.0,652.996862745098 L 524.0,652.996862745098 L 523.0,652.996862745098 L 522.0,652.996862745098 L 521.0,652.996862745098 L 520.0,652.996862745098 L 519.0,652.996862745098 L 518.0,652.996862745098 L 517.0,652.996862745098 L 516.0,652.996862745098 L 515.0,652.996862745098 L 514.0,652.996862745098 L 513.0,652.996862745098 L 512.0,652.996862745098 L 511.0,652.996862745098 L 510.0,652.996862745098 L 509.0,652.996862745098 L 508.0,652.996862745098 L 507.0,652.996862745098 L 506.0,652.996862745098 L 505.0,652.996862745098 L 504.0,652.996862745098 L 503.0,652.996862745098 L 502.0,652.996862745098 L 501.0,652.996862745098 L 500.0,652.996862745098 L 499.0,652.996862745098 L 498.0,652.996862745098 L 497.0,652.996862745098 L 496.0,652.996862745098 L 495.0,652.996862745098 L 494.0,652.996862745098 L 493.0,652.996862745098 L 492.0,652.996862745098 L 491.0,652.996862745098 L 490.0,652.996862745098 L 489.0,652.996862745098 L 488.0,652.996862745098 L 487.0,652.996862745098 L 486.0,652.996862745098 L 485.0,652.996862745098 L 484.0,652.996862745098 L 483.0,652.996862745098 L 482.0,652.996862745098 L 481.0,652.996862745098 L 480.0,652.996862745098 L 479.0,652.996862745098 L 478.0,652.996862745098 L 477.0,652.996862745098 L 476.0,652.996862745098 L 475.0,652.996862745098 L 474.0,652.996862745098 L 473.0,652.996862745098 L 472.0,652.996862745098 L 471.0,652.996862745098 L 470.0,652.996862745098 L 469.0,652.996862745098 L 468.0,652.996862745098 L 467.0,652.996862745098 L 466.0,652.996862745098 L 465.0,652.996862745098 L 464.0,652.996862745098 L 463.0,652.996862745098 L 462.0,652.996862745098 L 461.0,652.996862745098 L 460.0,652.996862745098 L 459.0,652.996862745098 L 458.0,652.996862745098 L 457.0,652.996862745098 L 456.0,652.996862745098 L 455.0,652.996862745098 L 454.0,652.996862745098 L 453.0,652.996862745098 L 452.0,652.996862745098 L 451.0,652.996862745098 L 450.0,652.996862745098 L 449.0,652.996862745098 L 448.0,652.996862745098 L 447.0,652.996862745098 L 446.0,652.996862745098 L 445.0,652.996862745098 L 444.0,652.996862745098 L 443.0,652.996862745098 L 442.0,652.996862745098 L 441.0,652.996862745098 L 440.0,652.996862745098 L 439.0,652.996862745098 L 438.0,652.996862745098 L 437.0,652.996862745098 L 436.0,652.996862745098 L 435.0,652.996862745098 L 434.0,652.996862745098 L 433.0,652.996862745098 L 432.0,652.996862745098 L 431.0,652.996862745098 L 430.0,652.996862745098 L 429.0,652.996862745098 L 428.0,652.996862745098 L 427.0,652.996862745098 L 426.0,652.996862745098 L 425.0,652.996862745098 L 424.0,652.996862745098 L 423.0,652.996862745098 L 422.0,652.996862745098 L 421.0,652.996862745098 L 420.0,652.996862745098 L 419.0,652.996862745098 L 418.0,652.996862745098 L 417.0,652.996862745098 L 416.0,652.996862745098 L 415.0,652.996862745098 L 414.0,652.996862745098 L 413.0,652.996862745098 L 412.0,652.996862745098 L 411.0,652.996862745098 L 410.0,652.996862745098 L 409.0,652.996862745098 L 408.0,652.996862745098 L 407.0,652.996862745098 L 406.0,652.996862745098 L 405.0,652.996862745098 L 404.0,652.996862745098 L 403.0,652.996862745098 L 402.0,652.996862745098 L 401.0,652.996862745098 L 400.0,652.996862745098 L 399.0,652.996862745098 L 398.0,652.996862745098 L 397.0,652.996862745098 L 396.0,652.996862745098 L 395.0,652.996862745098 L 394.0,652.996862745098 L 393.0,652.996862745098 L 392.0,652.996862745098 L 391.0,652.996862745098 L 390.0,652.996862745098 L 389.0,652.996862745098 L 388.0,652.996862745098 L 387.0,652.996862745098 L 386.0,652.996862745098 L 385.0,652.996862745098 L 384.0,652.996862745098 L 383.0,652.996862745098 L 382.0,652.996862745098 L 381.0,652.996862745098 L 380.0,652.996862745098 L 379.0,652.996862745098 L 378.0,652.996862745098 L 377.0,652.996862745098 L 376.0,652.996862745098 L 375.0,652.996862745098 L 374.0,652.996862745098 L 373.0,652.996862745098 L 372.0,652.996862745098 L 371.0,652.996862745098 L 370.0,652.996862745098 L 369.0,652.996862745098 L 368.0,652.996862745098 L 367.0,652.996862745098 L 366.0,652.996862745098 L 365.0,652.996862745098 L 364.0,652.996862745098 L 363.0,652.996862745098 L 362.0,652.996862745098 L 361.0,652.996862745098 L 360.0,652.996862745098 L 359.0,652.996862745098 L 358.0,652.996862745098 L 357.0,652.996862745098 L 356.0,652.996862745098 L 355.0,652.996862745098 L 354.0,652.996862745098 L 353.0,652.996862745098 L 352.0,652.996862745098 L 351.0,652.996862745098 L 350.0,652.996862745098 L 349.0,652.996862745098 L 348.0,652.996862745098 L 347.0,652.996862745098 L 346.0,652.996862745098 L 345.0,652.996862745098 L 344.0,652.996862745098 L 343.0,652.996862745098 L 342.0,652.996862745098 L 341.0,652.996862745098 L 340.0,652.996862745098 L 339.0,652.996862745098 L 338.0,652.996862745098 L 337.0,652.996862745098 L 336.0,652.996862745098 L 335.0,652.996862745098 L 334.0,652.996862745098 L 333.0,652.996862745098 L 332.0,652.996862745098 L 331.0,652.996862745098 L 330.0,652.996862745098 L 329.0,652.996862745098 L 328.0,652.996862745098 L 327.0,652.996862745098 L 326.0,652.996862745098 L 325.0,652.996862745098 L 324.0,652.996862745098 L 323.0,652.996862745098 L 322.0,652.996862745098 L 321.0,652.996862745098 L 320.0,652.996862745098 L 319.0,652.996862745098 L 318.0,652.996862745098 L 317.0,652.996862745098 L 316.0,652.996862745098 L 315.0,652.996862745098 L 314.0,652.996862745098 L 313.0,652.996862745098 L 312.0,652.996862745098 L 311.0,652.996862745098 L 310.0,652.996862745098 L 309.0,652.996862745098 L 308.0,652.996862745098 L 307.0,652.996862745098 L 306.0,652.996862745098 L 305.0,652.996862745098 L 304.0,652.996862745098 L 303.0,652.996862745098 L 302.0,652.996862745098 L 301.0,652.996862745098 L 300.0,652.996862745098 L 299.0,652.996862745098 L 298.0,652.996862745098 L 297.0,652.996862745098 L 296.0,652.996862745098 L 295.0,652.996862745098 L 294.0,652.996862745098 L 293.0,652.996862745098 L 292.0,652.996862745098 L 291.0,652.996862745098 L 290.0,652.996862745098 L 289.0,652.996862745098 L 288.0,652.996862745098 L 287.0,652.996862745098 L 286.0,652.996862745098 L 285.0,652.996862745098 L 284.0,652.996862745098 L 283.0,652.996862745098 L 282.0,652.996862745098 L 281.0,652.996862745098 L 280.0,652.996862745098 L 279.0,652.996862745098 L 278.0,652.996862745098 L 277.0,652.996862745098 L 276.0,652.996862745098 L 275.0,652.996862745098 L 274.0,652.996862745098 L 273.0,652.996862745098 L 272.0,652.996862745098 L 271.0,652.996862745098 L 270.0,652.996862745098 L 269.0,652.996862745098 L 268.0,652.996862745098 L 267.0,652.996862745098 L 266.0,652.996862745098 L 265.0,652.996862745098 L 264.0,652.996862745098 L 263.0,652.996862745098 L 262.0,652.996862745098 L 261.0,652.996862745098 L 260.0,652.996862745098 L 259.0,652.996862745098 L 258.0,652.996862745098 L 257.0,652.996862745098 L 256.0,652.996862745098 L 255.0,652.996862745098 L 254.00313725490196,652.0 L 254.00313725490196,651.0 L 254.00313725490196,650.0 L 254.00313725490196,649.0 L 254.00313725490196,648.0 L 254.00313725490196,647.0 L 254.00313725490196,646.0 L 254.00313725490196,645.0 L 254.00313725490196,644.0 L 254.00313725490196,643.0 L 254.00313725490196,642.0 L 254.00313725490196,641.0 L 254.00313725490196,640.0 L 254.00313725490196,639.0 L 254.00313725490196,638.0 L 254.00313725490196,637.0 L 254.00313725490196,636.0 L 254.00313725490196,635.0 L 254.00313725490196,634.0 L 254.00313725490196,633.0 L 254.00313725490196,632.0 L 254.00313725490196,631.0 L 254.00313725490196,630.0 L 254.00313725490196,629.0 L 254.00313725490196,628.0 L 254.00313725490196,627.0 L 254.00313725490196,626.0 L 254.00313725490196,625.0 L 254.00313725490196,624.0 L 254.00313725490196,623.0 L 254.00313725490196,622.0 L 254.00313725490196,621.0 L 254.00313725490196,620.0 L 254.00313725490196,619.0 L 254.00313725490196,618.0 L 254.00313725490196,617.0 L 254.00313725490196,616.0 L 254.00313725490196,615.0 L 254.00313725490196,614.0 L 254.00313725490196,613.0 L 254.00313725490196,612.0 L 254.00313725490196,611.0 L 254.00313725490196,610.0 L 254.00313725490196,609.0 L 254.00313725490196,608.0 L 254.00313725490196,607.0 L 254.00313725490196,606.0 L 254.00313725490196,605.0 L 254.00313725490196,604.0 L 254.00313725490196,603.0 L 254.00313725490196,602.0 L 254.00313725490196,601.0 L 254.00313725490196,600.0 L 254.00313725490196,599.0 L 254.00313725490196,598.0 L 254.00313725490196,597.0 L 254.00313725490196,596.0 L 254.00313725490196,595.0 L 254.00313725490196,594.0 L 254.00313725490196,593.0 L 254.00313725490196,592.0 L 254.00313725490196,591.0 L 254.00313725490196,590.0 L 254.00313725490196,589.0 L 254.00313725490196,588.0 L 254.00313725490196,587.0 L 254.00313725490196,586.0 L 254.00313725490196,585.0 L 254.00313725490196,584.0 L 254.00313725490196,583.0 L 254.00313725490196,582.0 L 254.00313725490196,581.0 L 254.00313725490196,580.0 L 254.00313725490196,579.0 L 254.00313725490196,578.0 L 254.00313725490196,577.0 L 254.00313725490196,576.0 L 254.00313725490196,575.0 L 254.00313725490196,574.0 L 254.00313725490196,573.0 L 254.00313725490196,572.0 L 254.00313725490196,571.0 L 254.00313725490196,570.0 L 254.00313725490196,569.0 L 254.00313725490196,568.0 L 254.00313725490196,567.0 L 254.00313725490196,566.0 L 254.00313725490196,565.0 L 254.00313725490196,564.0 L 254.00313725490196,563.0 L 254.00313725490196,562.0 L 254.00313725490196,561.0 L 254.00313725490196,560.0 L 254.00313725490196,559.0 L 254.00313725490196,558.0 L 254.00313725490196,557.0 L 254.00313725490196,556.0 L 254.00313725490196,555.0 L 254.00313725490196,554.0 L 254.00313725490196,553.0 L 254.00313725490196,552.0 L 254.00313725490196,551.0 L 254.00313725490196,550.0 L 254.00313725490196,549.0 L 254.00313725490196,548.0 L 254.00313725490196,547.0 L 254.00313725490196,546.0 L 254.00313725490196,545.0 L 254.00313725490196,544.0 L 254.00313725490196,543.0 L 254.00313725490196,542.0 L 254.00313725490196,541.0 L 254.00313725490196,540.0 L 254.00313725490196,539.0 L 254.00313725490196,538.0 L 254.00313725490196,537.0 L 254.00313725490196,536.0 L 254.00313725490196,535.0 L 254.00313725490196,534.0 L 254.00313725490196,533.0 L 254.00313725490196,532.0 L 254.00313725490196,531.0 L 254.00313725490196,530.0 L 254.00313725490196,529.0 L 254.00313725490196,528.0 L 254.00313725490196,527.0 L 254.00313725490196,526.0 L 254.00313725490196,525.0 L 254.00313725490196,524.0 L 254.00313725490196,523.0 L 254.00313725490196,522.0 L 254.00313725490196,521.0 L 254.00313725490196,520.0 L 254.00313725490196,519.0 L 254.00313725490196,518.0 L 254.00313725490196,517.0 L 254.00313725490196,516.0 L 254.00313725490196,515.0 L 254.00313725490196,514.0 L 254.00313725490196,513.0 L 254.00313725490196,512.0 L 254.00313725490196,511.0 L 254.00313725490196,510.0 L 254.00313725490196,509.0 L 254.00313725490196,508.0 L 254.00313725490196,507.0 L 254.00313725490196,506.0 L 254.00313725490196,505.0 L 254.00313725490196,504.0 L 254.00313725490196,503.0 L 254.00313725490196,502.0 L 254.00313725490196,501.0 L 254.00313725490196,500.0 L 254.00313725490196,499.0 L 254.00313725490196,498.0 L 254.00313725490196,497.0 L 254.00313725490196,496.0 L 254.00313725490196,495.0 L 254.00313725490196,494.0 L 254.00313725490196,493.0 L 254.00313725490196,492.0 L 254.00313725490196,491.0 L 254.00313725490196,490.0 L 254.00313725490196,489.0 L 254.00313725490196,488.0 L 254.00313725490196,487.0 L 254.00313725490196,486.0 L 254.00313725490196,485.0 L 254.00313725490196,484.0 L 254.00313725490196,483.0 L 254.00313725490196,482.0 L 254.00313725490196,481.0 L 254.00313725490196,480.0 L 254.00313725490196,479.0 L 254.00313725490196,478.0 L 254.00313725490196,477.0 L 254.00313725490196,476.0 L 254.00313725490196,475.0 L 254.00313725490196,474.0 L 254.00313725490196,473.0 L 254.00313725490196,472.0 L 254.00313725490196,471.0 L 254.00313725490196,470.0 L 254.00313725490196,469.0 L 254.00313725490196,468.0 L 254.00313725490196,467.0 L 254.00313725490196,466.0 L 254.00313725490196,465.0 L 254.00313725490196,464.0 L 254.00313725490196,463.0 L 254.00313725490196,462.0 L 254.00313725490196,461.0 L 254.00313725490196,460.0 L 254.00313725490196,459.0 L 254.00313725490196,458.0 L 254.00313725490196,457.0 L 254.00313725490196,456.0 L 254.00313725490196,455.0 L 254.00313725490196,454.0 L 254.00313725490196,453.0 L 254.00313725490196,452.0 L 254.00313725490196,451.0 L 254.00313725490196,450.0 L 254.00313725490196,449.0 L 254.00313725490196,448.0 L 254.00313725490196,447.0 L 254.00313725490196,446.0 L 254.00313725490196,445.0 L 254.00313725490196,444.0 L 254.00313725490196,443.0 L 254.00313725490196,442.0 L 254.00313725490196,441.0 L 254.00313725490196,440.0 L 254.00313725490196,439.0 L 254.00313725490196,438.0 L 254.00313725490196,437.0 L 254.00313725490196,436.0 L 254.00313725490196,435.0 L 254.00313725490196,434.0 L 254.00313725490196,433.0 L 254.00313725490196,432.0 L 254.00313725490196,431.0 L 254.00313725490196,430.0 L 254.00313725490196,429.0 L 254.00313725490196,428.0 L 254.00313725490196,427.0 L 254.00313725490196,426.0 L 254.00313725490196,425.0 L 254.00313725490196,424.0 L 254.00313725490196,423.0 L 254.00313725490196,422.0 L 254.00313725490196,421.0 L 254.00313725490196,420.0 L 254.00313725490196,419.0 L 254.00313725490196,418.0 L 254.00313725490196,417.0 L 254.00313725490196,416.0 L 254.00313725490196,415.0 L 254.00313725490196,414.0 L 254.00313725490196,413.0 L 254.00313725490196,412.0 L 254.00313725490196,411.0 L 254.00313725490196,410.0 L 254.00313725490196,409.0 L 254.00313725490196,408.0 L 254.00313725490196,407.0 L 254.00313725490196,406.0 L 254.00313725490196,405.0 L 254.00313725490196,404.0 L 254.00313725490196,403.0 L 254.00313725490196,402.0 L 254.00313725490196,401.0 L 254.00313725490196,400.0 L 254.00313725490196,399.0 L 254.00313725490196,398.0 L 254.00313725490196,397.0 L 254.00313725490196,396.0 L 254.00313725490196,395.0 L 254.00313725490196,394.0 L 254.00313725490196,393.0 L 254.00313725490196,392.0 L 254.00313725490196,391.0 L 254.00313725490196,390.0 L 254.00313725490196,389.0 L 254.00313725490196,388.0 L 254.00313725490196,387.0 L 254.00313725490196,386.0 L 254.00313725490196,385.0 L 254.00313725490196,384.0 L 254.00313725490196,383.0 L 254.00313725490196,382.0 L 254.00313725490196,381.0 L 254.00313725490196,380.0 L 254.00313725490196,379.0 L 254.00313725490196,378.0 L 254.00313725490196,377.0 L 254.00313725490196,376.0 L 254.00313725490196,375.0 L 254.00313725490196,374.0 L 254.00313725490196,373.0 L 254.00313725490196,372.0 L 254.00313725490196,371.0 L 254.00313725490196,370.0 L 254.00313725490196,369.0 L 254.00313725490196,368.0 L 254.00313725490196,367.0 L 254.00313725490196,366.0 L 254.00313725490196,365.0 L 254.00313725490196,364.0 L 254.00313725490196,363.0 L 254.00313725490196,362.0 L 254.00313725490196,361.0 L 254.00313725490196,360.0 L 254.00313725490196,359.0 L 254.00313725490196,358.0 L 254.00313725490196,357.0 L 254.00313725490196,356.0 L 254.00313725490196,355.0 L 254.00313725490196,354.0 L 254.00313725490196,353.0 L 254.00313725490196,352.0 L 254.00313725490196,351.0 L 254.00313725490196,350.0 L 254.00313725490196,349.0 L 254.00313725490196,348.0 L 254.00313725490196,347.0 L 254.00313725490196,346.0 L 254.00313725490196,345.0 L 254.00313725490196,344.0 L 254.00313725490196,343.0 L 254.00313725490196,342.0 L 254.00313725490196,341.0 L 254.00313725490196,340.0 L 254.00313725490196,339.0 L 254.00313725490196,338.0 L 254.00313725490196,337.0 L 254.00313725490196,336.0 L 254.00313725490196,335.0 L 254.00313725490196,334.0 L 254.00313725490196,333.0 L 254.00313725490196,332.0 L 254.00313725490196,331.0 L 254.00313725490196,330.0 L 254.00313725490196,329.0 L 254.00313725490196,328.0 L 254.00313725490196,327.0 L 254.00313725490196,326.0 L 254.00313725490196,325.0 L 254.00313725490196,324.0 L 254.00313725490196,323.0 L 254.00313725490196,322.0 L 254.00313725490196,321.0 L 254.00313725490196,320.0 L 254.00313725490196,319.0 L 254.00313725490196,318.0 L 254.00313725490196,317.0 L 254.00313725490196,316.0 L 254.00313725490196,315.0 L 254.00313725490196,314.0 L 254.00313725490196,313.0 L 254.00313725490196,312.0 L 254.00313725490196,311.0 L 254.00313725490196,310.0 L 254.00313725490196,309.0 L 254.00313725490196,308.0 L 254.00313725490196,307.0 L 254.00313725490196,306.0 L 254.00313725490196,305.0 L 254.00313725490196,304.0 L 254.00313725490196,303.0 L 254.00313725490196,302.0 L 254.00313725490196,301.0 L 254.00313725490196,300.0 L 254.00313725490196,299.0 L 254.00313725490196,298.0 L 254.00313725490196,297.0 L 254.00313725490196,296.0 L 254.00313725490196,295.0 L 254.00313725490196,294.0 L 254.00313725490196,293.0 L 254.00313725490196,292.0 L 254.00313725490196,291.0 L 254.00313725490196,290.0 L 254.00313725490196,289.0 L 254.00313725490196,288.0 L 254.00313725490196,287.0 L 254.00313725490196,286.0 L 254.00313725490196,285.0 L 254.00313725490196,284.0 L 254.00313725490196,283.0 L 254.00313725490196,282.0 L 254.00313725490196,281.0 L 254.00313725490196,280.0 L 254.00313725490196,279.0 L 254.00313725490196,278.0 L 254.00313725490196,277.0 L 254.00313725490196,276.0 L 254.00313725490196,275.0 L 254.00313725490196,274.0 L 254.00313725490196,273.0 L 254.00313725490196,272.0 L 254.00313725490196,271.0 L 254.00313725490196,270.0 L 254.00313725490196,269.0 L 254.00313725490196,268.0 L 254.00313725490196,267.0 L 254.00313725490196,266.0 L 254.00313725490196,265.0 L 254.00313725490196,264.0 L 254.00313725490196,263.0 L 254.00313725490196,262.0 L 254.00313725490196,261.0 L 254.00313725490196,260.0 L 254.00313725490196,259.0 L 254.00313725490196,258.0 L 254.00313725490196,257.0 L 254.00313725490196,256.0 L 254.00313725490196,255.0 L 254.00313725490196,254.0 L 254.00313725490196,253.0 L 254.00313725490196,252.0 L 254.00313725490196,251.0 L 254.00313725490196,250.0 L 254.00313725490196,249.0 L 254.00313725490196,248.0 L 254.00313725490196,247.0 L 254.00313725490196,246.0 L 254.00313725490196,245.0 L 254.00313725490196,244.0 L 254.00313725490196,243.0 L 254.00313725490196,242.0 L 254.00313725490196,241.0 L 254.00313725490196,240.0 L 254.00313725490196,239.0 L 254.00313725490196,238.0 L 254.00313725490196,237.0 L 254.00313725490196,236.0 L 254.00313725490196,235.0 L 254.00313725490196,234.0 L 254.00313725490196,233.0 L 254.00313725490196,232.0 L 254.00313725490196,231.0 L 254.00313725490196,230.0 L 254.00313725490196,229.0 L 254.00313725490196,228.0 L 254.00313725490196,227.0 L 254.00313725490196,226.0 L 254.00313725490196,225.0 L 254.00313725490196,224.0 L 254.00313725490196,223.0 L 254.00313725490196,222.0 L 254.00313725490196,221.0 L 254.00313725490196,220.0 L 254.00313725490196,219.0 L 254.00313725490196,218.0 L 254.00313725490196,217.0 L 254.00313725490196,216.0 L 254.00313725490196,215.0 L 254.00313725490196,214.0 L 254.00313725490196,213.0 L 254.00313725490196,212.0 L 254.00313725490196,211.0 L 254.00313725490196,210.0 L 254.00313725490196,209.0 L 254.00313725490196,208.0 L 254.00313725490196,207.0 L 254.00313725490196,206.0 L 254.00313725490196,205.0 L 254.00313725490196,204.0 L 254.00313725490196,203.0 L 254.00313725490196,202.0 L 254.00313725490196,201.0 L 254.00313725490196,200.0 L 254.00313725490196,199.0 L 254.00313725490196,198.0 L 254.00313725490196,197.0 L 254.00313725490196,196.0 L 254.00313725490196,195.0 L 254.00313725490196,194.0 L 254.00313725490196,193.0 L 254.00313725490196,192.0 L 254.00313725490196,191.0 L 254.00313725490196,190.0 L 254.00313725490196,189.0 L 254.00313725490196,188.0 L 254.00313725490196,187.0 L 254.00313725490196,186.0 L 254.00313725490196,185.0 L 254.00313725490196,184.0 L 254.00313725490196,183.0 L 254.00313725490196,182.0 L 254.00313725490196,181.0 L 254.00313725490196,180.0 L 254.00313725490196,179.0 L 254.00313725490196,178.0 L 254.00313725490196,177.0 L 254.00313725490196,176.0 L 254.00313725490196,175.0 L 254.00313725490196,174.0 L 254.00313725490196,173.0 L 254.00313725490196,172.0 L 254.00313725490196,171.0 L 254.00313725490196,170.0 L 254.00313725490196,169.0 L 254.00313725490196,168.0 L 254.00313725490196,167.0 L 254.00313725490196,166.0 L 254.00313725490196,165.0 L 254.00313725490196,164.0 L 254.00313725490196,163.0 L 254.00313725490196,162.0 L 254.00313725490196,161.0 L 254.00313725490196,160.0 L 254.00313725490196,159.0 L 254.00313725490196,158.0 L 254.00313725490196,157.0 L 254.00313725490196,156.0 L 254.00313725490196,155.0 L 254.00313725490196,154.0 L 254.00313725490196,153.0 L 254.00313725490196,152.0 L 254.00313725490196,151.0 L 254.00313725490196,150.0 L 254.00313725490196,149.0 L 254.00313725490196,148.0 L 254.00313725490196,147.0 L 254.00313725490196,146.0 L 254.00313725490196,145.0 L 254.00313725490196,144.0 L 254.00313725490196,143.0 L 254.00313725490196,142.0 L 254.00313725490196,141.0 L 254.00313725490196,140.0 L 254.00313725490196,139.0 L 254.00313725490196,138.0 L 254.00313725490196,137.0 L 254.00313725490196,136.0 L 254.00313725490196,135.0 L 254.00313725490196,134.0 L 254.00313725490196,133.0 L 254.00313725490196,132.0 L 254.00313725490196,131.0 L 254.00313725490196,130.0 L 254.00313725490196,129.0 L 254.00313725490196,128.0 L 254.00313725490196,127.0 L 254.00313725490196,126.0 L 254.00313725490196,125.0 L 254.00313725490196,124.0 L 254.00313725490196,123.0 L 254.00313725490196,122.0 L 254.00313725490196,121.0 L 254.00313725490196,120.0 L 254.00313725490196,119.0 L 254.00313725490196,118.0 L 254.00313725490196,117.0 L 254.00313725490196,116.0 L 254.00313725490196,115.0 L 254.00313725490196,114.0 L 254.00313725490196,113.0 L 254.00313725490196,112.0 L 254.00313725490196,111.0 L 254.00313725490196,110.0 L 254.00313725490196,109.0 L 254.00313725490196,108.0 L 254.00313725490196,107.0 L 254.00313725490196,106.0 L 254.00313725490196,105.0 L 254.00313725490196,104.0 L 254.00313725490196,103.0 L 254.00313725490196,102.0 L 254.00313725490196,101.0 L 254.00313725490196,100.0 L 254.00313725490196,99.0 L 254.00313725490196,98.0 L 254.00313725490196,97.0 L 254.00313725490196,96.0 L 254.00313725490196,95.0 L 254.00313725490196,94.0 L 254.00313725490196,93.0 L 254.00313725490196,92.0 L 254.00313725490196,91.0 L 254.00313725490196,90.0 L 254.00313725490196,89.0 L 254.00313725490196,88.0 L 254.00313725490196,87.0 L 254.00313725490196,86.0 L 254.00313725490196,85.0 L 254.00313725490196,84.0 L 254.00313725490196,83.0 L 255.0,82.00313725490196 L 256.0,82.00313725490196 L 257.0,82.00313725490196 L 258.0,82.00313725490196 L 259.0,82.00313725490196 L 260.0,82.00313725490196 L 261.0,82.00313725490196 L 262.0,82.00313725490196 L 263.0,82.00313725490196 L 264.0,82.00313725490196 L 265.0,82.00313725490196 L 266.0,82.00313725490196 L 267.0,82.00313725490196 L 268.0,82.00313725490196 L 269.0,82.00313725490196 L 270.0,82.00313725490196 L 271.0,82.00313725490196 L 272.0,82.00313725490196 L 273.0,82.00313725490196 L 274.0,82.00313725490196 L 275.0,82.00313725490196 L 276.0,82.00313725490196 L 277.0,82.00313725490196 L 278.0,82.00313725490196 L 279.0,82.00313725490196 L 280.0,82.00313725490196 L 281.0,82.00313725490196 L 282.0,82.00313725490196 L 283.0,82.00313725490196 L 284.0,82.00313725490196 L 285.0,82.00313725490196 L 286.0,82.00313725490196 L 287.0,82.00313725490196 L 288.0,82.00313725490196 L 289.0,82.00313725490196 L 290.0,82.00313725490196 L 291.0,82.00313725490196 L 292.0,82.00313725490196 L 293.0,82.00313725490196 L 294.0,82.00313725490196 L 295.0,82.00313725490196 L 296.0,82.00313725490196 L 297.0,82.00313725490196 L 298.0,82.00313725490196 L 299.0,82.00313725490196 L 300.0,82.00313725490196 L 301.0,82.00313725490196 L 302.0,82.00313725490196 L 303.0,82.00313725490196 L 304.0,82.00313725490196 L 305.0,82.00313725490196 L 306.0,82.00313725490196 L 307.0,82.00313725490196 L 308.0,82.00313725490196 L 309.0,82.00313725490196 L 310.0,82.00313725490196 L 311.0,82.00313725490196 L 312.0,82.00313725490196 L 313.0,82.00313725490196 L 314.0,82.00313725490196 L 315.0,82.00313725490196 L 316.0,82.00313725490196 L 317.0,82.00313725490196 L 318.0,82.00313725490196 L 319.0,82.00313725490196 L 320.0,82.00313725490196 L 321.0,82.00313725490196 L 322.0,82.00313725490196 L 323.0,82.00313725490196 L 324.0,82.00313725490196 L 325.0,82.00313725490196 L 326.0,82.00313725490196 L 327.0,82.00313725490196 L 328.0,82.00313725490196 L 329.0,82.00313725490196 L 330.0,82.00313725490196 L 331.0,82.00313725490196 L 332.0,82.00313725490196 L 333.0,82.00313725490196 L 334.0,82.00313725490196 L 335.0,82.00313725490196 L 336.0,82.00313725490196 L 337.0,82.00313725490196 L 338.0,82.00313725490196 L 339.0,82.00313725490196 L 340.0,82.00313725490196 L 341.0,82.00313725490196 L 342.0,82.00313725490196 L 343.0,82.00313725490196 L 344.0,82.00313725490196 L 345.0,82.00313725490196 L 346.0,82.00313725490196 L 347.0,82.00313725490196 L 348.0,82.00313725490196 L 349.0,82.00313725490196 L 350.0,82.00313725490196 L 351.0,82.00313725490196 L 352.0,82.00313725490196 L 353.0,82.00313725490196 L 354.0,82.00313725490196 L 355.0,82.00313725490196 L 356.0,82.00313725490196 L 357.0,82.00313725490196 L 358.0,82.00313725490196 L 359.0,82.00313725490196 L 360.0,82.00313725490196 L 361.0,82.00313725490196 L 362.0,82.00313725490196 L 363.0,82.00313725490196 L 364.0,82.00313725490196 L 365.0,82.00313725490196 L 366.0,82.00313725490196 L 367.0,82.00313725490196 L 368.0,82.00313725490196 L 369.0,82.00313725490196 L 370.0,82.00313725490196 L 371.0,82.00313725490196 L 372.0,82.00313725490196 L 373.0,82.00313725490196 L 374.0,82.00313725490196 L 375.0,82.00313725490196 L 376.0,82.00313725490196 L 377.0,82.00313725490196 L 378.0,82.00313725490196 L 379.0,82.00313725490196 L 380.0,82.00313725490196 L 381.0,82.00313725490196 L 382.0,82.00313725490196 L 383.0,82.00313725490196 L 384.0,82.00313725490196 L 385.0,82.00313725490196 L 386.0,82.00313725490196 L 387.0,82.00313725490196 L 388.0,82.00313725490196 L 389.0,82.00313725490196 L 390.0,82.00313725490196 L 391.0,82.00313725490196 L 392.0,82.00313725490196 L 393.0,82.00313725490196 L 394.0,82.00313725490196 L 395.0,82.00313725490196 L 396.0,82.00313725490196 L 397.0,82.00313725490196 L 398.0,82.00313725490196 L 399.0,82.00313725490196 L 400.0,82.00313725490196 L 401.0,82.00313725490196 L 402.0,82.00313725490196 L 403.0,82.00313725490196 L 404.0,82.00313725490196 L 405.0,82.00313725490196 L 406.0,82.00313725490196 L 407.0,82.00313725490196 L 408.0,82.00313725490196 L 409.0,82.00313725490196 L 410.0,82.00313725490196 L 411.0,82.00313725490196 L 412.0,82.00313725490196 L 413.0,82.00313725490196 L 414.0,82.00313725490196 L 415.0,82.00313725490196 L 416.0,82.00313725490196 L 417.0,82.00313725490196 L 418.0,82.00313725490196 L 419.0,82.00313725490196 L 420.0,82.00313725490196 L 421.0,82.00313725490196 L 422.0,82.00313725490196 L 423.0,82.00313725490196 L 424.0,82.00313725490196 L 425.0,82.00313725490196 L 426.0,82.00313725490196 L 427.0,82.00313725490196 L 428.0,82.00313725490196 L 429.0,82.00313725490196 L 430.0,82.00313725490196 L 431.0,82.00313725490196 L 432.0,82.00313725490196 L 433.0,82.00313725490196 L 434.0,82.00313725490196 L 435.0,82.00313725490196 L 436.0,82.00313725490196 L 437.0,82.00313725490196 L 438.0,82.00313725490196 L 439.0,82.00313725490196 L 440.0,82.00313725490196 L 441.0,82.00313725490196 L 442.0,82.00313725490196 L 443.0,82.00313725490196 L 444.0,82.00313725490196 L 445.0,82.00313725490196 L 446.0,82.00313725490196 L 447.0,82.00313725490196 L 448.0,82.00313725490196 L 449.0,82.00313725490196 L 450.0,82.00313725490196 L 451.0,82.00313725490196 L 452.0,82.00313725490196 L 453.0,82.00313725490196 L 454.0,82.00313725490196 L 455.0,82.00313725490196 L 456.0,82.00313725490196 L 457.0,82.00313725490196 L 458.0,82.00313725490196 L 459.0,82.00313725490196 L 460.0,82.00313725490196 L 461.0,82.00313725490196 L 462.0,82.00313725490196 L 463.0,82.00313725490196 L 464.0,82.00313725490196 L 465.0,82.00313725490196 L 466.0,82.00313725490196 L 467.0,82.00313725490196 L 468.0,82.00313725490196 L 469.0,82.00313725490196 L 470.0,82.00313725490196 L 471.0,82.00313725490196 L 472.0,82.00313725490196 L 473.0,82.00313725490196 L 474.0,82.00313725490196 L 475.0,82.00313725490196 L 476.0,82.00313725490196 L 477.0,82.00313725490196 L 478.0,82.00313725490196 L 479.0,82.00313725490196 L 480.0,82.00313725490196 L 481.0,82.00313725490196 L 482.0,82.00313725490196 L 483.0,82.00313725490196 L 484.0,82.00313725490196 L 485.0,82.00313725490196 L 486.0,82.00313725490196 L 487.0,82.00313725490196 L 488.0,82.00313725490196 L 489.0,82.00313725490196 L 490.0,82.00313725490196 L 491.0,82.00313725490196 L 492.0,82.00313725490196 L 493.0,82.00313725490196 L 494.0,82.00313725490196 L 495.0,82.00313725490196 L 496.0,82.00313725490196 L 497.0,82.00313725490196 L 498.0,82.00313725490196 L 499.0,82.00313725490196 L 500.0,82.00313725490196 L 501.0,82.00313725490196 L 502.0,82.00313725490196 L 503.0,82.00313725490196 L 504.0,82.00313725490196 L 505.0,82.00313725490196 L 506.0,82.00313725490196 L 507.0,82.00313725490196 L 508.0,82.00313725490196 L 509.0,82.00313725490196 L 510.0,82.00313725490196 L 511.0,82.00313725490196 L 512.0,82.00313725490196 L 513.0,82.00313725490196 L 514.0,82.00313725490196 L 515.0,82.00313725490196 L 516.0,82.00313725490196 L 517.0,82.00313725490196 L 518.0,82.00313725490196 L 519.0,82.00313725490196 L 520.0,82.00313725490196 L 521.0,82.00313725490196 L 522.0,82.00313725490196 L 523.0,82.00313725490196 L 524.0,82.00313725490196 L 525.0,82.00313725490196 L 526.0,82.00313725490196 L 527.0,82.00313725490196 L 528.0,82.00313725490196 L 529.0,82.00313725490196 L 530.0,82.00313725490196 L 531.0,82.00313725490196 L 532.0,82.00313725490196 L 533.0,82.00313725490196 L 534.0,82.00313725490196 L 535.0,82.00313725490196 L 536.0,82.00313725490196 L 537.0,82.00313725490196 L 538.0,82.00313725490196 L 539.0,82.00313725490196 L 540.0,82.00313725490196 L 541.0,82.00313725490196 L 542.0,82.00313725490196 L 543.0,82.00313725490196 L 544.0,82.00313725490196 L 545.0,82.00313725490196 L 546.0,82.00313725490196 L 547.0,82.00313725490196 L 548.0,82.00313725490196 L 549.0,82.00313725490196 L 550.0,82.00313725490196 L 551.0,82.00313725490196 L 552.0,82.00313725490196 L 553.0,82.00313725490196 L 554.0,82.00313725490196 L 555.0,82.00313725490196 L 556.0,82.00313725490196 L 557.0,82.00313725490196 L 558.0,82.00313725490196 L 559.0,82.00313725490196 L 560.0,82.00313725490196 L 561.0,82.00313725490196 L 562.0,82.00313725490196 L 563.0,82.00313725490196 L 564.0,82.00313725490196 L 565.0,82.00313725490196 L 566.0,82.00313725490196 L 567.0,82.00313725490196 L 568.0,82.00313725490196 L 569.0,82.00313725490196 L 570.0,82.00313725490196 L 571.0,82.00313725490196 L 572.0,82.00313725490196 L 573.0,82.00313725490196 L 574.0,82.00313725490196 L 575.0,82.00313725490196 L 576.0,82.00313725490196 L 577.0,82.00313725490196 L 578.0,82.00313725490196 L 579.0,82.00313725490196 L 580.0,82.00313725490196 L 581.0,82.00313725490196 L 582.0,82.00313725490196 L 583.0,82.00313725490196 L 584.0,82.00313725490196 L 585.0,82.00313725490196 L 586.0,82.00313725490196 L 587.0,82.00313725490196 L 588.0,82.00313725490196 L 589.0,82.00313725490196 L 590.0,82.00313725490196 L 591.0,82.00313725490196 L 592.0,82.00313725490196 L 593.0,82.00313725490196 L 594.0,82.00313725490196 L 595.0,82.00313725490196 L 596.0,82.00313725490196 L 597.0,82.00313725490196 L 598.0,82.00313725490196 L 599.0,82.00313725490196 L 600.0,82.00313725490196 L 601.0,82.00313725490196 L 602.0,82.00313725490196 L 603.0,82.00313725490196 L 604.0,82.00313725490196 L 605.0,82.00313725490196 L 606.0,82.00313725490196 L 607.0,82.00313725490196 L 608.0,82.00313725490196 L 609.0,82.00313725490196 L 610.0,82.00313725490196 L 611.0,82.00313725490196 L 612.0,82.00313725490196 L 613.0,82.00313725490196 L 614.0,82.00313725490196 L 615.0,82.00313725490196 L 616.0,82.00313725490196 L 617.0,82.00313725490196 L 618.0,82.00313725490196 L 619.0,82.00313725490196 L 620.0,82.00313725490196 L 621.0,82.00313725490196 L 622.0,82.00313725490196 L 623.0,82.00313725490196 L 624.0,82.00313725490196 L 625.0,82.00313725490196 L 626.0,82.00313725490196 L 627.0,82.00313725490196 L 628.0,82.00313725490196 L 629.0,82.00313725490196 L 630.0,82.00313725490196 L 631.0,82.00313725490196 L 632.0,82.00313725490196 L 633.0,82.00313725490196 L 634.0,82.00313725490196 L 635.0,82.00313725490196 L 636.0,82.00313725490196 L 637.0,82.00313725490196 L 638.0,82.00313725490196 L 639.0,82.00313725490196 L 640.0,82.00313725490196 L 641.0,82.00313725490196 L 642.0,82.00313725490196 L 643.0,82.00313725490196 L 644.0,82.00313725490196 L 645.0,82.00313725490196 L 646.0,82.00313725490196 L 647.0,82.00313725490196 L 648.0,82.00313725490196 L 649.0,82.00313725490196 L 650.0,82.00313725490196 L 651.0,82.00313725490196 L 652.0,82.00313725490196 L 653.0,82.00313725490196 L 654.0,82.00313725490196 L 655.0,82.00313725490196 L 656.0,82.00313725490196 L 657.0,82.00313725490196 L 658.0,82.00313725490196 L 659.0,82.00313725490196 L 660.0,82.00313725490196 L 661.0,82.00313725490196 L 662.0,82.00313725490196 L 663.0,82.00313725490196 L 664.0,82.00313725490196 L 665.0,82.00313725490196 L 666.0,82.00313725490196 L 667.0,82.00313725490196 L 668.0,82.00313725490196 L 669.0,82.00313725490196 L 670.0,82.00313725490196 L 671.0,82.00313725490196 L 672.0,82.00313725490196 L 673.0,82.00313725490196 L 674.0,82.00313725490196 L 675.0,82.00313725490196 L 676.0,82.00313725490196 L 677.0,82.00313725490196 L 678.0,82.00313725490196 L 679.0,82.00313725490196 L 680.0,82.00313725490196 L 681.0,82.00313725490196 L 682.0,82.00313725490196 L 683.0,82.00313725490196 L 684.0,82.00313725490196 L 685.0,82.00313725490196 L 686.0,82.00313725490196 L 687.0,82.00313725490196 L 688.0,82.00313725490196 L 689.0,82.00313725490196 L 690.0,82.00313725490196 L 691.0,82.00313725490196 L 692.0,82.00313725490196 L 693.0,82.00313725490196 L 694.0,82.00313725490196 L 695.0,82.00313725490196 L 696.0,82.00313725490196 L 697.0,82.00313725490196 L 698.0,82.00313725490196 L 699.0,82.00313725490196 L 700.0,82.00313725490196 L 701.0,82.00313725490196 L 702.0,82.00313725490196 L 703.0,82.00313725490196 L 704.0,82.00313725490196 L 705.0,82.00313725490196 L 706.0,82.00313725490196 L 707.0,82.00313725490196 L 708.0,82.00313725490196 L 709.0,82.00313725490196 L 710.0,82.00313725490196 L 711.0,82.00313725490196 L 712.0,82.00313725490196 L 713.0,82.00313725490196 L 714.0,82.00313725490196 L 715.0,82.00313725490196 L 716.0,82.00313725490196 L 717.0,82.00313725490196 L 718.0,82.00313725490196 L 719.0,82.00313725490196 L 720.0,82.00313725490196 L 721.0,82.00313725490196 L 722.0,82.00313725490196 L 723.0,82.00313725490196 L 724.0,82.00313725490196 L 725.0,82.00313725490196 L 726.0,82.00313725490196 L 727.0,82.00313725490196 L 728.0,82.00313725490196 L 729.0,82.00313725490196 L 730.0,82.00313725490196 L 731.0,82.00313725490196 L 732.0,82.00313725490196 L 733.0,82.00313725490196 L 734.0,82.00313725490196 L 735.0,82.00313725490196 L 736.0,82.00313725490196 L 737.0,82.00313725490196 L 738.0,82.00313725490196 L 739.0,82.00313725490196 L 740.0,82.00313725490196 L 741.0,82.00313725490196 L 742.0,82.00313725490196 L 743.0,82.00313725490196 L 744.0,82.00313725490196 L 745.0,82.00313725490196 L 746.0,82.00313725490196 L 747.0,82.00313725490196 L 748.0,82.00313725490196 L 749.0,82.00313725490196 L 750.0,82.00313725490196 L 751.0,82.00313725490196 L 752.0,82.00313725490196 L 753.0,82.00313725490196 L 754.0,82.00313725490196 L 755.0,82.00313725490196 L 756.0,82.00313725490196 L 757.0,82.00313725490196 L 758.0,82.00313725490196 L 759.0,82.00313725490196 L 760.0,82.00313725490196 L 761.0,82.00313725490196 L 762.0,82.00313725490196 L 763.0,82.00313725490196 L 764.0,82.00313725490196 L 765.0,82.00313725490196 L 766.0,82.00313725490196 L 767.0,82.00313725490196 L 768.0,82.00313725490196 L 769.0,82.00313725490196 L 770.0,82.00313725490196 L 771.0,82.00313725490196 L 772.0,82.00313725490196 L 773.0,82.00313725490196 L 774.0,82.00313725490196 L 775.0,82.00313725490196 L 776.0,82.00313725490196 L 777.0,82.00313725490196 L 778.0,82.00313725490196 L 779.0,82.00313725490196 L 780.0,82.00313725490196 L 781.0,82.00313725490196 L 782.0,82.00313725490196 L 783.0,82.00313725490196 L 784.0,82.00313725490196 L 785.0,82.00313725490196 L 786.0,82.00313725490196 L 787.0,82.00313725490196 L 788.0,82.00313725490196 L 789.0,82.00313725490196 L 790.0,82.00313725490196 L 791.0,82.00313725490196 L 792.0,82.00313725490196 L 793.0,82.00313725490196 L 794.0,82.00313725490196 L 795.0,82.00313725490196 L 796.0,82.00313725490196 L 797.0,82.00313725490196 L 798.0,82.00313725490196 L 799.0,82.00313725490196 L 800.0,82.00313725490196 L 801.0,82.00313725490196 L 802.0,82.00313725490196 L 803.0,82.00313725490196 L 804.0,82.00313725490196 L 805.0,82.00313725490196 L 806.0,82.00313725490196 L 807.0,82.00313725490196 L 808.0,82.00313725490196 L 809.0,82.00313725490196 L 810.0,82.00313725490196 L 811.0,82.00313725490196 L 812.0,82.00313725490196 L 813.0,82.00313725490196 L 814.0,82.00313725490196 L 815.0,82.00313725490196 L 816.0,82.00313725490196 L 817.0,82.00313725490196 L 818.0,82.00313725490196 L 819.0,82.00313725490196 L 820.0,82.00313725490196 L 821.0,82.00313725490196 L 822.0,82.00313725490196 L 823.0,82.00313725490196 L 824.0,82.00313725490196 L 825.0,82.00313725490196 L 826.0,82.00313725490196 L 827.0,82.00313725490196 L 828.0,82.00313725490196 L 829.0,82.00313725490196 L 830.0,82.00313725490196 L 831.0,82.00313725490196 L 832.0,82.00313725490196 L 833.0,82.00313725490196 L 834.0,82.00313725490196 L 835.0,82.00313725490196 L 836.0,82.00313725490196 L 837.0,82.00313725490196 L 838.0,82.00313725490196 L 839.0,82.00313725490196 L 840.0,82.00313725490196 L 841.0,82.00313725490196 L 842.0,82.00313725490196 L 843.0,82.00313725490196 L 844.0,82.00313725490196 L 845.0,82.00313725490196 L 846.0,82.00313725490196 L 847.0,82.00313725490196 L 848.0,82.00313725490196 L 849.0,82.00313725490196 L 850.0,82.00313725490196 L 851.0,82.00313725490196 L 852.0,82.00313725490196 L 853.0,82.00313725490196 L 854.0,82.00313725490196 L 855.0,82.00313725490196 L 856.0,82.00313725490196 L 857.0,82.00313725490196 L 858.0,82.00313725490196 L 859.0,82.00313725490196 L 860.0,82.00313725490196 L 861.0,82.00313725490196 L 862.0,82.00313725490196 L 863.0,82.00313725490196 L 864.0,82.00313725490196 L 865.0,82.00313725490196 L 866.0,82.00313725490196 L 867.0,82.00313725490196 L 868.0,82.00313725490196 L 869.0,82.00313725490196 L 870.0,82.00313725490196 L 871.0,82.00313725490196 L 872.0,82.00313725490196 L 873.0,82.00313725490196 L 874.0,82.00313725490196 L 875.0,82.00313725490196 L 876.0,82.00313725490196 L 877.0,82.00313725490196 L 878.0,82.00313725490196 L 879.0,82.00313725490196 L 880.0,82.00313725490196 L 881.0,82.00313725490196 L 882.0,82.00313725490196 L 883.0,82.00313725490196 L 884.0,82.00313725490196 L 885.0,82.00313725490196 L 886.0,82.00313725490196 L 887.0,82.00313725490196 L 888.0,82.00313725490196 L 889.0,82.00313725490196 L 890.0,82.00313725490196 L 891.0,82.00313725490196 L 892.0,82.00313725490196 L 893.0,82.00313725490196 L 894.0,82.00313725490196 L 895.0,82.00313725490196 L 896.0,82.00313725490196 L 897.0,82.00313725490196 L 898.0,82.00313725490196 L 899.0,82.00313725490196 L 900.0,82.00313725490196 L 901.0,82.00313725490196 L 902.0,82.00313725490196 L 903.0,82.00313725490196 L 904.0,82.00313725490196 L 905.0,82.00313725490196 L 906.0,82.00313725490196 L 907.0,82.00313725490196 L 908.0,82.00313725490196 L 909.0,82.00313725490196 L 910.0,82.00313725490196 L 911.0,82.00313725490196 L 912.0,82.00313725490196 L 913.0,82.00313725490196 L 914.0,82.00313725490196 L 915.0,82.00313725490196 L 916.0,82.00313725490196 L 917.0,82.00313725490196 L 918.0,82.00313725490196 L 919.0,82.00313725490196 L 920.0,82.00313725490196 L 921.0,82.00313725490196 L 922.0,82.00313725490196 L 923.0,82.00313725490196 L 924.0,82.00313725490196 L 925.0,82.00313725490196 L 926.0,82.00313725490196 L 927.0,82.00313725490196 L 928.0,82.00313725490196 L 929.0,82.00313725490196 L 930.0,82.00313725490196 L 931.0,82.00313725490196 L 932.0,82.00313725490196 L 933.0,82.00313725490196 L 934.0,82.00313725490196 L 935.0,82.00313725490196 L 936.0,82.00313725490196 L 937.0,82.00313725490196 L 938.0,82.00313725490196 L 939.0,82.00313725490196 L 940.0,82.00313725490196 L 941.0,82.00313725490196 L 942.0,82.00313725490196 L 943.0,82.00313725490196 L 944.0,82.00313725490196 L 945.0,82.00313725490196 L 946.0,82.00313725490196 L 947.0,82.00313725490196 L 948.0,82.00313725490196 L 949.0,82.00313725490196 L 950.0,82.00313725490196 L 951.0,82.00313725490196 L 952.0,82.00313725490196 L 953.0,82.00313725490196 L 954.0,82.00313725490196 L 955.0,82.00313725490196 L 956.0,82.00313725490196 L 957.0,82.00313725490196 L 958.0,82.00313725490196 L 959.0,82.00313725490196 L 960.0,82.00313725490196 L 961.0,82.00313725490196 L 962.0,82.00313725490196 L 963.0,82.00313725490196 L 964.0,82.00313725490196 L 965.0,82.00313725490196 L 966.0,82.00313725490196 L 967.0,82.00313725490196 L 968.0,82.00313725490196 L 968.003137254902,82.0 L 969.0,81.00313725490196 L 970.0,81.00313725490196 L 971.0,81.00313725490196 L 972.0,81.00313725490196 L 973.0,81.00313725490196 L 974.0,81.00313725490196 L 975.0,81.00313725490196 L 976.0,81.00313725490196 L 977.0,81.00313725490196 L 978.0,81.00313725490196 L 979.0,81.00313725490196 L 980.0,81.00313725490196 L 981.0,81.00313725490196 L 982.0,81.00313725490196 L 983.0,81.00313725490196 L 984.0,81.00313725490196 L 985.0,81.00313725490196 L 986.0,81.00313725490196 L 987.0,81.00313725490196 L 988.0,81.00313725490196 L 989.0,81.00313725490196 L 990.0,81.00313725490196 L 991.0,81.00313725490196 L 992.0,81.00313725490196 L 993.0,81.00313725490196 L 994.0,81.00313725490196 L 995.0,81.00313725490196 L 996.0,81.00313725490196 L 997.0,81.00313725490196 L 998.0,81.00313725490196 L 999.0,81.00313725490196 L 1000.0,81.00313725490196 L 1001.0,81.00313725490196 L 1002.0,81.00313725490196 L 1003.0,81.00313725490196 L 1004.0,81.00313725490196 L 1005.0,81.00313725490196 L 1006.0,81.00313725490196 L 1007.0,81.00313725490196 L 1008.0,81.00313725490196 L 1009.0,81.00313725490196 L 1010.0,81.00313725490196 L 1011.0,81.00313725490196 L 1012.0,81.00313725490196 L 1013.0,81.00313725490196 L 1014.0,81.00313725490196 L 1015.0,81.00313725490196 L 1016.0,81.00313725490196 L 1017.0,81.00313725490196 L 1018.0,81.00313725490196 L 1019.0,81.00313725490196 L 1020.0,81.00313725490196 L 1021.0,81.00313725490196 L 1022.0,81.00313725490196 L 1023.0,81.00313725490196 L 1024.0,81.00313725490196 L 1025.0,81.00313725490196 L 1026.0,81.00313725490196 L 1027.0,81.00313725490196 L 1028.0,81.00313725490196 L 1029.0,81.00313725490196 L 1030.0,81.00313725490196 L 1031.0,81.00313725490196 L 1032.0,81.00313725490196 L 1033.0,81.00313725490196 L 1034.0,81.00313725490196 L 1035.0,81.00313725490196 L 1036.0,81.00313725490196 L 1037.0,81.00313725490196 L 1038.0,81.00313725490196 L 1039.0,81.00313725490196 L 1040.0,81.00313725490196 L 1041.0,81.00313725490196 L 1042.0,81.00313725490196 L 1043.0,81.00313725490196 L 1044.0,81.00313725490196 L 1045.0,81.00313725490196 L 1046.0,81.00313725490196 L 1047.0,81.00313725490196 L 1048.0,81.00313725490196 L 1049.0,81.00313725490196 L 1050.0,81.00313725490196 L 1051.0,81.00313725490196 L 1052.0,81.00313725490196 L 1053.0,81.00313725490196 L 1054.0,81.00313725490196 L 1055.0,81.00313725490196 L 1056.0,81.00313725490196 L 1057.0,81.00313725490196 L 1058.0,81.00313725490196 L 1059.0,81.00313725490196 L 1060.0,81.00313725490196 L 1061.0,81.00313725490196 L 1062.0,81.00313725490196 L 1063.0,81.00313725490196 L 1064.0,81.00313725490196 L 1065.0,81.00313725490196 L 1066.0,81.00313725490196 L 1067.0,81.00313725490196 L 1068.0,81.00313725490196 L 1069.0,81.00313725490196 L 1070.0,81.00313725490196 L 1071.0,81.00313725490196 L 1072.0,81.00313725490196 L 1073.0,81.00313725490196 L 1074.0,81.00313725490196 L 1075.0,81.00313725490196 L 1076.0,81.00313725490196 L 1077.0,81.00313725490196 L 1078.0,81.00313725490196 L 1079.0,81.00313725490196 L 1080.0,81.00313725490196 L 1081.0,81.00313725490196 L 1082.0,81.00313725490196 L 1083.0,81.00313725490196 L 1084.0,81.00313725490196 L 1085.0,81.00313725490196 L 1086.0,81.00313725490196 L 1087.0,81.00313725490196 L 1088.0,81.00313725490196 L 1089.0,81.00313725490196 L 1090.0,81.00313725490196 L 1091.0,81.00313725490196 L 1092.0,81.00313725490196 L 1093.0,81.00313725490196 L 1094.0,81.00313725490196 L 1095.0,81.00313725490196 L 1096.0,81.00313725490196 L 1097.0,81.00313725490196 L 1098.0,81.00313725490196 L 1099.0,81.00313725490196 L 1100.0,81.00313725490196 L 1101.0,81.00313725490196 L 1102.0,81.00313725490196 L 1103.0,81.00313725490196 L 1104.0,81.00313725490196 L 1105.0,81.00313725490196 L 1106.0,81.00313725490196 L 1107.0,81.00313725490196 L 1108.0,81.00313725490196 L 1109.0,81.00313725490196 L 1110.0,81.00313725490196 L 1111.0,81.00313725490196 L 1112.0,81.00313725490196 L 1113.0,81.00313725490196 L 1114.0,81.00313725490196 L 1115.0,81.00313725490196 L 1116.0,81.00313725490196 L 1117.0,81.00313725490196 L 1118.0,81.00313725490196 L 1119.0,81.00313725490196 L 1120.0,81.00313725490196 L 1121.0,81.00313725490196 L 1122.0,81.00313725490196 L 1123.0,81.00313725490196 L 1124.0,81.00313725490196 L 1125.0,81.00313725490196 L 1126.0,81.00313725490196 L 1127.0,81.00313725490196 L 1128.0,81.00313725490196 L 1129.0,81.00313725490196 L 1130.0,81.00313725490196 L 1131.0,81.00313725490196 L 1132.0,81.00313725490196 L 1133.0,81.00313725490196 L 1134.0,81.00313725490196 L 1135.0,81.00313725490196 L 1136.0,81.00313725490196 L 1137.0,81.00313725490196 L 1138.0,81.00313725490196 L 1139.0,81.00313725490196 L 1140.0,81.00313725490196 L 1141.0,81.00313725490196 L 1142.0,81.00313725490196 L 1143.0,81.00313725490196 L 1144.0,81.00313725490196 L 1145.0,81.00313725490196 L 1146.0,81.00313725490196 L 1147.0,81.00313725490196 L 1148.0,81.00313725490196 L 1149.0,81.00313725490196 L 1150.0,81.00313725490196 L 1151.0,81.00313725490196 L 1152.0,81.00313725490196 L 1153.0,81.00313725490196 L 1154.0,81.00313725490196 L 1155.0,81.00313725490196 L 1156.0,81.00313725490196 L 1157.0,81.00313725490196 L 1158.0,81.00313725490196 L 1159.0,81.00313725490196 L 1160.0,81.00313725490196 L 1161.0,81.00313725490196 L 1162.0,81.00313725490196 L 1163.0,81.00313725490196 L 1164.0,81.00313725490196 L 1165.0,81.00313725490196 L 1166.0,81.00313725490196 L 1167.0,81.00313725490196 L 1168.0,81.00313725490196 L 1169.0,81.00313725490196 L 1170.0,81.00313725490196 L 1171.0,81.00313725490196 L 1172.0,81.00313725490196 L 1173.0,81.00313725490196 L 1174.0,81.00313725490196 L 1175.0,81.00313725490196 L 1176.0,81.00313725490196 L 1177.0,81.00313725490196 L 1178.0,81.00313725490196 L 1179.0,81.00313725490196 L 1180.0,81.00313725490196 L 1181.0,81.00313725490196 L 1182.0,81.00313725490196 L 1183.0,81.00313725490196 L 1184.0,81.00313725490196 L 1185.0,81.00313725490196 L 1186.0,81.00313725490196 L 1187.0,81.00313725490196 L 1188.0,81.00313725490196 L 1189.0,81.00313725490196 L 1190.0,81.00313725490196 L 1191.0,81.00313725490196 L 1192.0,81.00313725490196 L 1193.0,81.00313725490196 L 1194.0,81.00313725490196 L 1195.0,81.00313725490196 L 1196.0,81.00313725490196 L 1197.0,81.00313725490196 L 1198.0,81.00313725490196 L 1199.0,81.00313725490196 L 1200.0,81.00313725490196 L 1201.0,81.00313725490196 L 1202.0,81.00313725490196 L 1203.0,81.00313725490196 L 1204.0,81.00313725490196 L 1205.0,81.00313725490196 L 1206.0,81.00313725490196 L 1207.0,81.00313725490196 L 1208.0,81.00313725490196 L 1209.0,81.00313725490196 L 1210.0,81.00313725490196 L 1211.0,81.00313725490196 L 1212.0,81.00313725490196 L 1213.0,81.00313725490196 L 1214.0,81.00313725490196 L 1215.0,81.00313725490196 L 1216.0,81.00313725490196 L 1217.0,81.00313725490196 L 1218.0,81.00313725490196 L 1219.0,81.00313725490196 L 1220.0,81.00313725490196 L 1221.0,81.00313725490196 L 1222.0,81.00313725490196 L 1223.0,81.00313725490196 L 1224.0,81.00313725490196 L 1225.0,81.00313725490196 L 1226.0,81.00313725490196 L 1227.0,81.00313725490196 L 1228.0,81.00313725490196 L 1229.0,81.00313725490196 L 1230.0,81.00313725490196 L 1231.0,81.00313725490196 L 1232.0,81.00313725490196 L 1233.0,81.00313725490196 L 1234.0,81.00313725490196 L 1235.0,81.00313725490196 L 1236.0,81.00313725490196 L 1237.0,81.00313725490196 L 1238.0,81.00313725490196 L 1239.0,81.00313725490196 L 1240.0,81.00313725490196 L 1241.0,81.00313725490196 L 1242.0,81.00313725490196 L 1243.0,81.00313725490196 L 1244.0,81.00313725490196 L 1245.0,81.00313725490196 L 1246.0,81.00313725490196 L 1247.0,81.00313725490196 L 1248.0,81.00313725490196 L 1249.0,81.00313725490196 L 1250.0,81.00313725490196 L 1251.0,81.00313725490196 L 1252.0,81.00313725490196 L 1253.0,81.00313725490196 L 1254.0,81.00313725490196 L 1255.0,81.00313725490196 L 1256.0,81.00313725490196 L 1257.0,81.00313725490196 L 1258.0,81.00313725490196 L 1259.0,81.00313725490196 L 1260.0,81.00313725490196 L 1261.0,81.00313725490196 L 1262.0,81.00313725490196 L 1263.0,81.00313725490196 L 1264.0,81.00313725490196 L 1265.0,81.00313725490196 L 1266.0,81.00313725490196 L 1267.0,81.00313725490196 L 1268.0,81.00313725490196 L 1269.0,81.00313725490196 L 1270.0,81.00313725490196 L 1271.0,81.00313725490196 L 1272.0,81.00313725490196 L 1273.0,81.00313725490196 L 1274.0,81.00313725490196 L 1275.0,81.00313725490196 L 1276.0,81.00313725490196 L 1277.0,81.00313725490196 L 1278.0,81.00313725490196 L 1279.0,81.00313725490196 L 1280.0,81.00313725490196 L 1281.0,81.00313725490196 L 1282.0,81.00313725490196 L 1283.0,81.00313725490196 L 1284.0,81.00313725490196 L 1285.0,81.00313725490196 L 1286.0,81.00313725490196 L 1287.0,81.00313725490196 L 1288.0,81.00313725490196 L 1289.0,81.00313725490196 L 1290.0,81.00313725490196 L 1291.0,81.00313725490196 L 1292.0,81.00313725490196 L 1293.0,81.00313725490196 L 1294.0,81.00313725490196 L 1295.0,81.00313725490196 L 1296.0,81.00313725490196 L 1297.0,81.00313725490196 L 1298.0,81.00313725490196 L 1299.0,81.00313725490196 L 1300.0,81.00313725490196 L 1301.0,81.00313725490196 L 1302.0,81.00313725490196 L 1303.0,81.00313725490196 L 1304.0,81.00313725490196 L 1305.0,81.00313725490196 L 1306.0,81.00313725490196 L 1307.0,81.00313725490196 L 1308.0,81.00313725490196 L 1309.0,81.00313725490196 L 1310.0,81.00313725490196 L 1311.0,81.00313725490196 L 1312.0,81.00313725490196 L 1313.0,81.00313725490196 L 1314.0,81.00313725490196 L 1315.0,81.00313725490196 L 1316.0,81.00313725490196 L 1317.0,81.00313725490196 L 1318.0,81.00313725490196 L 1319.0,81.00313725490196 L 1320.0,81.00313725490196 L 1321.0,81.00313725490196 L 1321.996862745098,82.0 L 1321.996862745098,83.0 L 1321.996862745098,84.0 L 1322.0,84.00313725490196 L 1322.996862745098,85.0 L 1322.996862745098,86.0 L 1322.996862745098,87.0 L 1322.0,87.99686274509804 L 1321.996862745098,88.0 L 1321.996862745098,89.0 L 1321.996862745098,90.0 L 1321.996862745098,91.0 L 1321.996862745098,92.0 L 1321.996862745098,93.0 L 1321.996862745098,94.0 L 1321.996862745098,95.0 L 1321.996862745098,96.0 L 1321.996862745098,97.0 L 1321.996862745098,98.0 L 1321.996862745098,99.0 L 1321.996862745098,100.0 L 1321.996862745098,101.0 L 1321.996862745098,102.0 L 1321.996862745098,103.0 L 1321.996862745098,104.0 L 1321.996862745098,105.0 L 1321.996862745098,106.0 L 1321.996862745098,107.0 L 1321.996862745098,108.0 L 1321.996862745098,109.0 L 1321.996862745098,110.0 L 1321.996862745098,111.0 L 1321.996862745098,112.0 L 1321.996862745098,113.0 L 1321.996862745098,114.0 L 1321.996862745098,115.0 L 1321.996862745098,116.0 L 1321.996862745098,117.0 L 1321.996862745098,118.0 L 1321.996862745098,119.0 L 1321.996862745098,120.0 L 1321.996862745098,121.0 L 1321.996862745098,122.0 L 1321.996862745098,123.0 L 1321.996862745098,124.0 L 1321.996862745098,125.0 L 1321.996862745098,126.0 L 1321.996862745098,127.0 L 1321.996862745098,128.0 L 1321.996862745098,129.0 L 1321.996862745098,130.0 L 1321.996862745098,131.0 L 1321.996862745098,132.0 L 1321.996862745098,133.0 L 1321.996862745098,134.0 L 1321.996862745098,135.0 L 1321.996862745098,136.0 L 1321.996862745098,137.0 L 1321.996862745098,138.0 L 1321.996862745098,139.0 L 1321.996862745098,140.0 L 1321.996862745098,141.0 L 1321.996862745098,142.0 L 1321.996862745098,143.0 L 1321.996862745098,144.0 L 1321.996862745098,145.0 L 1321.996862745098,146.0 L 1321.996862745098,147.0 L 1321.996862745098,148.0 L 1321.996862745098,149.0 L 1321.996862745098,150.0 L 1321.996862745098,151.0 L 1321.996862745098,152.0 L 1321.996862745098,153.0 L 1321.996862745098,154.0 L 1321.996862745098,155.0 L 1321.996862745098,156.0 L 1321.996862745098,157.0 L 1321.996862745098,158.0 L 1321.996862745098,159.0 L 1321.996862745098,160.0 L 1321.996862745098,161.0 L 1321.996862745098,162.0 L 1321.996862745098,163.0 L 1321.996862745098,164.0 L 1321.996862745098,165.0 L 1321.996862745098,166.0 L 1321.996862745098,167.0 L 1321.996862745098,168.0 L 1321.996862745098,169.0 L 1321.996862745098,170.0 L 1321.996862745098,171.0 L 1321.996862745098,172.0 L 1321.996862745098,173.0 L 1321.996862745098,174.0 L 1321.996862745098,175.0 L 1321.996862745098,176.0 L 1321.996862745098,177.0 L 1321.996862745098,178.0 L 1321.996862745098,179.0 L 1321.996862745098,180.0 L 1321.996862745098,181.0 L 1321.996862745098,182.0 L 1321.996862745098,183.0 L 1321.996862745098,184.0 L 1321.996862745098,185.0 L 1321.996862745098,186.0 L 1321.996862745098,187.0 L 1321.996862745098,188.0 L 1321.996862745098,189.0 L 1321.996862745098,190.0 L 1321.996862745098,191.0 L 1321.996862745098,192.0 L 1321.996862745098,193.0 L 1321.996862745098,194.0 L 1321.996862745098,195.0 L 1321.996862745098,196.0 L 1321.996862745098,197.0 L 1321.996862745098,198.0 L 1321.996862745098,199.0 L 1321.996862745098,200.0 L 1321.996862745098,201.0 L 1321.996862745098,202.0 L 1321.996862745098,203.0 L 1321.996862745098,204.0 L 1321.996862745098,205.0 L 1321.996862745098,206.0 L 1321.996862745098,207.0 L 1321.996862745098,208.0 L 1321.996862745098,209.0 L 1321.996862745098,210.0 L 1321.996862745098,211.0 L 1321.996862745098,212.0 L 1321.996862745098,213.0 L 1321.996862745098,214.0 L 1321.996862745098,215.0 L 1321.996862745098,216.0 L 1321.996862745098,217.0 L 1321.996862745098,218.0 L 1321.996862745098,219.0 L 1321.996862745098,220.0 L 1321.996862745098,221.0 L 1321.996862745098,222.0 L 1321.996862745098,223.0 L 1321.996862745098,224.0 L 1321.996862745098,225.0 L 1321.996862745098,226.0 L 1321.996862745098,227.0 L 1321.996862745098,228.0 L 1321.996862745098,229.0 L 1321.996862745098,230.0 L 1321.996862745098,231.0 L 1321.996862745098,232.0 L 1321.996862745098,233.0 L 1321.996862745098,234.0 L 1321.996862745098,235.0 L 1321.996862745098,236.0 L 1321.996862745098,237.0 L 1321.996862745098,238.0 L 1321.996862745098,239.0 L 1321.996862745098,240.0 L 1321.996862745098,241.0 L 1321.996862745098,242.0 L 1321.996862745098,243.0 L 1321.996862745098,244.0 L 1321.996862745098,245.0 L 1321.996862745098,246.0 L 1321.996862745098,247.0 L 1321.996862745098,248.0 L 1321.996862745098,249.0 L 1321.996862745098,250.0 L 1321.996862745098,251.0 L 1321.996862745098,252.0 L 1321.996862745098,253.0 L 1321.996862745098,254.0 L 1321.996862745098,255.0 L 1321.996862745098,256.0 L 1321.996862745098,257.0 L 1321.996862745098,258.0 L 1321.996862745098,259.0 L 1321.996862745098,260.0 L 1321.996862745098,261.0 L 1321.996862745098,262.0 L 1321.996862745098,263.0 L 1321.996862745098,264.0 L 1321.996862745098,265.0 L 1321.996862745098,266.0 L 1321.996862745098,267.0 L 1321.996862745098,268.0 L 1321.996862745098,269.0 L 1321.996862745098,270.0 L 1321.996862745098,271.0 L 1321.996862745098,272.0 L 1321.996862745098,273.0 L 1321.996862745098,274.0 L 1321.996862745098,275.0 L 1321.996862745098,276.0 L 1321.996862745098,277.0 L 1321.996862745098,278.0 L 1321.996862745098,279.0 L 1321.996862745098,280.0 L 1321.996862745098,281.0 L 1321.996862745098,282.0 L 1321.996862745098,283.0 L 1321.996862745098,284.0 L 1321.996862745098,285.0 L 1321.996862745098,286.0 L 1321.996862745098,287.0 L 1321.996862745098,288.0 L 1321.996862745098,289.0 L 1321.996862745098,290.0 L 1321.996862745098,291.0 L 1321.996862745098,292.0 L 1321.996862745098,293.0 L 1321.996862745098,294.0 L 1321.996862745098,295.0 L 1321.996862745098,296.0 L 1321.996862745098,297.0 L 1321.996862745098,298.0 L 1321.996862745098,299.0 L 1321.996862745098,300.0 L 1321.996862745098,301.0 L 1321.996862745098,302.0 L 1321.996862745098,303.0 L 1321.996862745098,304.0 L 1321.996862745098,305.0 L 1321.996862745098,306.0 L 1321.996862745098,307.0 L 1321.996862745098,308.0 L 1321.996862745098,309.0 L 1321.996862745098,310.0 L 1321.996862745098,311.0 L 1321.996862745098,312.0 L 1321.996862745098,313.0 L 1321.996862745098,314.0 L 1321.996862745098,315.0 L 1321.996862745098,316.0 L 1321.996862745098,317.0 L 1321.996862745098,318.0 L 1321.996862745098,319.0 L 1321.996862745098,320.0 L 1321.996862745098,321.0 L 1321.996862745098,322.0 L 1321.996862745098,323.0 L 1321.996862745098,324.0 L 1321.996862745098,325.0 L 1321.996862745098,326.0 L 1321.996862745098,327.0 L 1321.996862745098,328.0 L 1321.996862745098,329.0 L 1321.996862745098,330.0 L 1321.996862745098,331.0 L 1321.996862745098,332.0 L 1321.996862745098,333.0 L 1321.996862745098,334.0 L 1321.996862745098,335.0 L 1321.996862745098,336.0 L 1321.996862745098,337.0 L 1321.996862745098,338.0 L 1321.996862745098,339.0 L 1321.996862745098,340.0 L 1321.996862745098,341.0 L 1321.996862745098,342.0 L 1321.996862745098,343.0 L 1321.996862745098,344.0 L 1321.996862745098,345.0 L 1321.996862745098,346.0 L 1321.996862745098,347.0 L 1321.996862745098,348.0 L 1321.996862745098,349.0 L 1321.996862745098,350.0 L 1321.996862745098,351.0 L 1321.996862745098,352.0 L 1321.996862745098,353.0 L 1321.996862745098,354.0 L 1321.996862745098,355.0 L 1321.996862745098,356.0 L 1321.996862745098,357.0 L 1321.996862745098,358.0 L 1321.996862745098,359.0 L 1321.996862745098,360.0 L 1321.996862745098,361.0 L 1321.996862745098,362.0 L 1321.996862745098,363.0 L 1321.996862745098,364.0 L 1321.996862745098,365.0 L 1321.996862745098,366.0 L 1321.996862745098,367.0 L 1321.996862745098,368.0 L 1321.996862745098,369.0 L 1321.996862745098,370.0 L 1321.996862745098,371.0 L 1321.996862745098,372.0 L 1321.996862745098,373.0 L 1321.996862745098,374.0 L 1321.996862745098,375.0 L 1321.996862745098,376.0 L 1321.996862745098,377.0 L 1321.996862745098,378.0 L 1321.996862745098,379.0 L 1321.996862745098,380.0 L 1321.996862745098,381.0 L 1321.996862745098,382.0 L 1321.996862745098,383.0 L 1321.996862745098,384.0 L 1321.996862745098,385.0 L 1321.996862745098,386.0 L 1321.996862745098,387.0 L 1321.996862745098,388.0 L 1321.996862745098,389.0 L 1321.996862745098,390.0 L 1321.996862745098,391.0 L 1321.996862745098,392.0 L 1321.996862745098,393.0 L 1321.996862745098,394.0 L 1321.996862745098,395.0 L 1321.996862745098,396.0 L 1321.996862745098,397.0 L 1321.996862745098,398.0 L 1321.996862745098,399.0 L 1321.996862745098,400.0 L 1321.996862745098,401.0 L 1321.996862745098,402.0 L 1321.996862745098,403.0 L 1321.996862745098,404.0 L 1321.996862745098,405.0 L 1321.996862745098,406.0 L 1321.996862745098,407.0 L 1321.996862745098,408.0 L 1321.996862745098,409.0 L 1321.996862745098,410.0 L 1321.996862745098,411.0 L 1321.996862745098,412.0 L 1321.996862745098,413.0 L 1321.996862745098,414.0 L 1321.996862745098,415.0 L 1321.996862745098,416.0 L 1321.996862745098,417.0 L 1321.996862745098,418.0 L 1321.996862745098,419.0 L 1321.996862745098,420.0 L 1321.996862745098,421.0 L 1321.996862745098,422.0 L 1321.996862745098,423.0 L 1321.996862745098,424.0 L 1321.996862745098,425.0 L 1321.996862745098,426.0 L 1321.996862745098,427.0 L 1321.996862745098,428.0 L 1321.996862745098,429.0 L 1321.996862745098,430.0 L 1321.996862745098,431.0 L 1321.996862745098,432.0 L 1321.996862745098,433.0 L 1321.996862745098,434.0 L 1321.996862745098,435.0 L 1321.996862745098,436.0 L 1321.996862745098,437.0 L 1321.996862745098,438.0 L 1321.996862745098,439.0 L 1321.996862745098,440.0 L 1321.996862745098,441.0 L 1321.996862745098,442.0 L 1321.996862745098,443.0 L 1321.996862745098,444.0 L 1321.996862745098,445.0 L 1321.996862745098,446.0 L 1321.996862745098,447.0 L 1321.996862745098,448.0 L 1321.996862745098,449.0 L 1321.996862745098,450.0 L 1321.996862745098,451.0 L 1321.996862745098,452.0 L 1321.996862745098,453.0 L 1321.996862745098,454.0 L 1321.996862745098,455.0 L 1321.996862745098,456.0 L 1321.996862745098,457.0 L 1321.996862745098,458.0 L 1321.996862745098,459.0 L 1321.996862745098,460.0 L 1321.996862745098,461.0 L 1321.996862745098,462.0 L 1321.996862745098,463.0 L 1321.996862745098,464.0 L 1321.996862745098,465.0 L 1321.996862745098,466.0 L 1321.996862745098,467.0 L 1321.996862745098,468.0 L 1321.996862745098,469.0 L 1321.996862745098,470.0 L 1321.996862745098,471.0 L 1321.996862745098,472.0 L 1321.996862745098,473.0 L 1321.996862745098,474.0 L 1321.996862745098,475.0 L 1321.996862745098,476.0 L 1321.996862745098,477.0 L 1321.996862745098,478.0 L 1321.996862745098,479.0 L 1321.996862745098,480.0 L 1321.996862745098,481.0 L 1321.996862745098,482.0 L 1321.996862745098,483.0 L 1321.996862745098,484.0 L 1321.996862745098,485.0 L 1321.996862745098,486.0 L 1321.996862745098,487.0 L 1321.996862745098,488.0 L 1321.996862745098,489.0 L 1321.996862745098,490.0 L 1321.996862745098,491.0 L 1321.996862745098,492.0 L 1321.996862745098,493.0 L 1321.996862745098,494.0 L 1321.996862745098,495.0 L 1321.996862745098,496.0 L 1321.996862745098,497.0 L 1321.996862745098,498.0 L 1321.996862745098,499.0 L 1321.996862745098,500.0 L 1321.996862745098,501.0 L 1321.996862745098,502.0 L 1321.996862745098,503.0 L 1321.996862745098,504.0 L 1321.996862745098,505.0 L 1321.996862745098,506.0 L 1321.996862745098,507.0 L 1321.996862745098,508.0 L 1321.996862745098,509.0 L 1321.996862745098,510.0 L 1321.996862745098,511.0 L 1321.996862745098,512.0 L 1321.996862745098,513.0 L 1321.996862745098,514.0 L 1321.996862745098,515.0 L 1321.996862745098,516.0 L 1321.996862745098,517.0 L 1321.996862745098,518.0 L 1321.996862745098,519.0 L 1321.996862745098,520.0 L 1321.996862745098,521.0 L 1321.996862745098,522.0 L 1321.996862745098,523.0 L 1321.996862745098,524.0 L 1321.996862745098,525.0 L 1321.996862745098,526.0 L 1321.996862745098,527.0 L 1321.996862745098,528.0 L 1321.996862745098,529.0 L 1321.996862745098,530.0 L 1321.996862745098,531.0 L 1321.996862745098,532.0 L 1321.996862745098,533.0 L 1321.996862745098,534.0 L 1321.996862745098,535.0 L 1321.996862745098,536.0 L 1321.996862745098,537.0 L 1321.996862745098,538.0 L 1321.996862745098,539.0 L 1321.996862745098,540.0 L 1321.996862745098,541.0 L 1321.996862745098,542.0 L 1321.996862745098,543.0 L 1321.996862745098,544.0 L 1321.996862745098,545.0 L 1321.996862745098,546.0 L 1321.996862745098,547.0 L 1321.996862745098,548.0 L 1321.996862745098,549.0 L 1321.996862745098,550.0 L 1321.996862745098,551.0 L 1321.996862745098,552.0 L 1321.996862745098,553.0 L 1321.996862745098,554.0 L 1321.996862745098,555.0 L 1321.996862745098,556.0 L 1321.996862745098,557.0 L 1321.996862745098,558.0 L 1321.996862745098,559.0 L 1321.996862745098,560.0 L 1321.996862745098,561.0 L 1321.996862745098,562.0 L 1321.996862745098,563.0 L 1321.996862745098,564.0 L 1321.996862745098,565.0 L 1321.996862745098,566.0 L 1321.996862745098,567.0 L 1321.996862745098,568.0 L 1321.996862745098,569.0 L 1321.996862745098,570.0 L 1321.996862745098,571.0 L 1321.996862745098,572.0 L 1321.996862745098,573.0 L 1321.996862745098,574.0 L 1321.996862745098,575.0 L 1321.996862745098,576.0 L 1321.996862745098,577.0 L 1321.996862745098,578.0 L 1321.996862745098,579.0 L 1321.996862745098,580.0 L 1321.996862745098,581.0 L 1321.996862745098,582.0 L 1321.996862745098,583.0 L 1321.996862745098,584.0 L 1321.996862745098,585.0 L 1321.996862745098,586.0 L 1321.996862745098,587.0 L 1321.996862745098,588.0 L 1321.996862745098,589.0 L 1321.996862745098,590.0 L 1321.996862745098,591.0 L 1321.996862745098,592.0 L 1321.996862745098,593.0 L 1321.996862745098,594.0 L 1321.996862745098,595.0 L 1321.996862745098,596.0 L 1321.996862745098,597.0 L 1321.996862745098,598.0 L 1321.996862745098,599.0 L 1321.996862745098,600.0 L 1321.996862745098,601.0 L 1321.996862745098,602.0 L 1321.996862745098,603.0 L 1321.996862745098,604.0 L 1321.996862745098,605.0 L 1321.996862745098,606.0 L 1321.996862745098,607.0 L 1321.996862745098,608.0 L 1321.996862745098,609.0 L 1321.996862745098,610.0 L 1321.996862745098,611.0 L 1321.996862745098,612.0 L 1321.996862745098,613.0 L 1321.996862745098,614.0 L 1321.996862745098,615.0 L 1321.996862745098,616.0 L 1321.996862745098,617.0 L 1321.996862745098,618.0 L 1321.996862745098,619.0 L 1321.996862745098,620.0 L 1321.996862745098,621.0 L 1321.996862745098,622.0 L 1321.996862745098,623.0 L 1321.996862745098,624.0 L 1321.996862745098,625.0 L 1321.996862745098,626.0 L 1321.996862745098,627.0 L 1321.996862745098,628.0 L 1321.996862745098,629.0 L 1321.996862745098,630.0 L 1321.996862745098,631.0 L 1321.996862745098,632.0 L 1321.996862745098,633.0 L 1321.996862745098,634.0 L 1321.996862745098,635.0 L 1321.996862745098,636.0 L 1321.996862745098,637.0 L 1321.996862745098,638.0 L 1321.996862745098,639.0 L 1321.996862745098,640.0 L 1321.996862745098,641.0 L 1321.996862745098,642.0 L 1321.996862745098,643.0 L 1321.996862745098,644.0 L 1321.996862745098,645.0 L 1321.996862745098,646.0 L 1321.996862745098,647.0 L 1321.996862745098,648.0 L 1322.0,648.003137254902 L 1322.996862745098,649.0 L 1322.996862745098,650.0 L 1322.996862745098,651.0 L 1322.0,651.996862745098 L 1321.996862745098,652.0 L 1321.996862745098,653.0 L 1321.996862745098,654.0 L 1321.996862745098,655.0 L 1321.996862745098,656.0 L 1321.0,656.996862745098 Z" fill="black" /><path d="M 1680.0,781.996862745098 L 1679.0,781.996862745098 L 1678.0,781.996862745098 L 1677.003137254902,781.0 L 1677.0,780.996862745098 L 1676.003137254902,780.0 L 1676.003137254902,779.0 L 1676.003137254902,778.0 L 1676.003137254902,777.0 L 1676.003137254902,776.0 L 1676.003137254902,775.0 L 1677.0,774.003137254902 L 1677.003137254902,774.0 L 1678.0,773.003137254902 L 1679.0,773.003137254902 L 1680.0,773.003137254902 L 1680.996862745098,774.0 L 1681.0,774.003137254902 L 1681.996862745098,775.0 L 1681.996862745098,776.0 L 1681.996862745098,777.0 L 1681.996862745098,778.0 L 1681.996862745098,779.0 L 1681.996862745098,780.0 L 1681.0,780.996862745098 L 1680.996862745098,781.0 L 1680.0,781.996862745098 Z" fill="black" /></svg>