<svg width="257" height="16" viewBox="0 0 257 16" fill="none" xmlns="http://www.w3.org/2000/svg">
<path fill-rule="evenodd" clip-rule="evenodd" d="M144.313 8.1872C92.8991 8.99837 36.2661 12.2439 4.40412 15.48C2.20629 15.7032 0.243638 14.1025 0.0204134 11.9046C-0.202811 9.70679 1.39792 7.74414 3.59576 7.52091C35.7338 4.25678 92.6007 1.00208 144.187 0.188195C169.981 -0.218758 194.528 -0.016865 214.043 1.10842C223.794 1.67074 232.362 2.46748 239.232 3.55003C245.925 4.60465 251.564 6.00588 255.035 8.05676C256.937 9.18064 257.568 11.6335 256.444 13.5354C255.32 15.4373 252.867 16.068 250.965 14.9441C248.936 13.7449 244.669 12.5054 237.987 11.4525C231.482 10.4276 223.205 9.65007 213.582 9.09516C194.347 7.986 170.019 7.78163 144.313 8.1872Z" fill="black"/>
</svg>
